<svg xmlns="http://www.w3.org/2000/svg" fill="none" viewBox="46.36 50.64 220.51 171.2">
<path fill-rule="evenodd" clip-rule="evenodd" d="M115.542 215.775C147.635 234.836 174.56 201.905 203.535 212.723C219.396 218.645 249.725 235.246 265.085 177.633C274.866 140.402 243.09 121.908 202.639 131.507C191.15 132.787 183.277 129.327 175.445 122.897C167.613 116.468 160.982 95.356 140.368 85.8549C78.3345 57.2628 -4.64543 144.394 115.542 215.775Z" fill="#BC294B"/>
<path fill-rule="evenodd" clip-rule="evenodd" d="M223.087 144.331C223.823 144.189 224.827 145.116 223.884 145.923C221.797 147.709 226.43 153.635 225.599 149.284C225.51 148.819 225.252 145.697 226.303 147.555C227.355 149.412 227.629 156.449 225.726 158.339C224.055 159.997 220.778 160.12 216.616 159.123L216.429 159.078L216.34 159.06C213.873 158.52 212.43 156.518 212.025 153.262L212.006 153.104C211.622 149.707 212.613 147.332 215.01 146.194C215.054 146.174 215.099 146.157 215.145 146.144L215.215 146.127L223.087 144.331Z" fill="white"/>
<path fill-rule="evenodd" clip-rule="evenodd" d="M106.899 51.5572C106.723 51.0779 106.325 50.7223 105.817 50.6508C105.297 50.577 104.782 50.8143 104.499 51.2563L104.424 51.3746C104.367 51.4616 104.301 51.5609 104.225 51.6722C104.007 51.9897 103.753 52.3388 103.464 52.71C102.642 53.7652 101.705 54.787 100.67 55.6939C98.4362 57.6506 96.0701 58.7953 93.6464 58.831C93.2676 58.8366 92.965 59.1482 92.9706 59.527C92.9734 59.7193 95.8224 62.2448 99.2917 62.7302C102.657 63.2009 106.644 61.6374 106.716 61.4774L106.85 61.1404L106.893 61.0269C107.804 58.5594 108.127 55.5827 107.165 52.3576C107.085 52.0897 106.997 51.8229 106.899 51.5572Z" fill="#E7EAEE"/>
<path fill-rule="evenodd" clip-rule="evenodd" d="M113.48 54.1096L113.427 54.2387C112.732 55.8884 111.432 58.0966 109.754 59.5755C107.688 61.3962 105.156 62.5337 102.776 63.066C99.3413 63.8338 95.9853 63.2436 93.3051 60.3325L93.1873 60.2027C91.7881 58.6385 90.6439 57.7592 88.7593 57.7268C86.8747 57.6944 85.672 58.7511 84.5896 59.7404L84.5411 59.7815C84.3751 59.9121 84.166 59.9772 83.9538 59.963L80.4625 59.5961L81.2762 61.4381C81.5202 61.9957 81.6924 62.3968 81.7928 62.6411L82.6602 64.7664C85.2514 71.077 88.2105 77.2322 97.0592 77.7469L97.3597 77.7621C99.7134 77.8635 101.22 79.6888 103.033 82.2694L103.42 82.8236C103.898 83.5122 105.325 85.6602 105.877 86.658L106.057 86.9873L106.221 87.2971C106.255 87.3623 106.287 87.4249 106.318 87.4847L106.484 87.8174L106.677 87.6837C108.769 86.2035 110.536 83.569 111.69 81.3141C112.126 80.4621 112.469 79.6264 112.729 78.8403L112.763 78.7378C112.837 78.5076 112.897 78.3053 112.944 78.1353L112.978 78.0089L112.72 78.015C109.745 78.0582 106.612 77.3025 103.67 76.1388C102.96 75.8577 112.751 71.4974 113.36 62.6162C113.499 60.5921 113.949 57.9567 113.76 56.0352C113.7 55.4291 113.62 54.8682 113.528 54.361L113.48 54.1096Z" fill="white"/>
<path fill-rule="evenodd" clip-rule="evenodd" d="M223.158 145.467L215.378 146.969C213.352 147.931 212.512 149.943 212.858 153.007C212.979 154.082 213.314 156.655 213.558 155.745C213.634 155.461 221.14 152.997 222.256 153.734C223.288 154.415 222.165 150.465 222.014 148.747L223.181 145.382L223.461 145.09" fill="#E7EAEE"/>
<path fill-rule="evenodd" clip-rule="evenodd" d="M213.302 145.518C213.759 145.64 210.84 146.165 210.371 148.449C209.902 150.733 210.549 155.348 210.078 155.396C209.607 155.445 209.121 154.02 209.072 153.549C208.768 150.618 208.866 149.481 209.318 147.94C209.91 145.923 211.306 144.983 213.302 145.518Z" fill="#E7EAEE"/>
<ellipse cx="224.24" cy="150.836" rx="1.85234" ry="4.18454" transform="rotate(15 224.24 150.836)" fill="#E7EAEE"/>
<path fill-rule="evenodd" clip-rule="evenodd" d="M87.8448 159.965C89.724 152.952 91.3202 150.112 100.713 148.526C119.72 146.19 119.792 145.922 156.05 142.023C165.634 141.01 181.807 153.923 190.672 152.703C196.581 151.889 201.992 151.559 206.974 150.516C206.655 153.404 208.143 158.837 208.894 159.904C203.467 159.605 198.051 159.941 192.645 160.911C180.957 163.007 187.465 163.326 166.868 174.426C165.123 175.366 159.2 176.99 150.96 178.127C150.96 178.127 136.587 172.13 131.274 168.04C125.866 163.878 118.798 153.372 118.798 153.372C118.798 153.372 106.163 157.507 99.1344 159.004C95.8449 159.704 87.8448 159.965 87.8448 159.965Z" fill="white"/>
<path fill-rule="evenodd" clip-rule="evenodd" d="M88.8212 156.321C89.2623 154.674 89.3963 153.479 89.9107 152.255C91.5878 148.264 94.3777 146.739 101.566 145.526C120.573 143.189 120.768 142.278 157.027 138.379C166.611 137.365 182.783 150.279 191.648 149.058C197.558 148.244 202.968 147.914 207.95 146.871C207.941 146.954 206.469 150.623 206.469 150.623C206.469 150.623 194.106 153.44 186.616 152.733C178.659 151.982 169.805 143.205 158.577 143.346C141.479 143.562 101.073 147.812 95.7939 150.176C91.6461 152.033 88.8212 156.321 88.8212 156.321Z" fill="#E7EAEE"/>
<path fill-rule="evenodd" clip-rule="evenodd" d="M106.899 51.5572C106.723 51.0779 106.325 50.7223 105.817 50.6508C105.297 50.577 104.782 50.8143 104.499 51.2563L104.424 51.3746C104.367 51.4616 104.301 51.5609 104.225 51.6722C104.007 51.9897 103.753 52.3388 103.464 52.71C102.642 53.7652 101.705 54.787 100.67 55.6939C98.4363 57.6506 96.0701 58.7953 93.6464 58.831C93.2676 58.8365 92.965 59.1482 92.9706 59.527C92.9761 59.9059 99.117 58.8784 101.574 56.726C102.68 55.757 103.675 54.6726 104.547 53.5531C104.81 53.2154 105.046 52.8941 105.255 52.5952L105.357 52.4476C105.44 52.3268 105.512 52.2181 105.575 52.1216C105.604 52.0486 105.618 52.0256 105.619 52.0525C108.719 55.6668 105.5 61.7123 105.856 61.8414C106.196 61.9645 106.57 61.8023 106.716 61.4774L106.85 61.1404L106.893 61.0269C107.804 58.5594 108.127 55.5827 107.165 52.3576C107.085 52.0897 106.997 51.8229 106.899 51.5572Z" fill="#E7EAEE"/>
<path fill-rule="evenodd" clip-rule="evenodd" d="M114.809 53.6559L114.852 53.8276L114.903 54.0466C114.933 54.1811 114.965 54.3364 114.999 54.5111C115.116 55.1166 115.216 55.7934 115.289 56.5295C115.494 58.6014 115.445 60.7653 115.047 62.9268C114.507 65.8599 113.367 68.4589 111.656 70.6431L111.511 70.826C110.142 72.5234 108.426 73.9551 106.389 75.1061L106.188 75.2181L106.322 75.2611C108.619 75.9811 110.971 76.3886 113.163 76.2858C113.633 76.2638 114.086 76.4616 114.39 76.821C114.693 77.1798 114.812 77.6585 114.714 78.1177L114.682 78.2597L114.636 78.4463L114.616 78.5178C114.547 78.7771 114.461 79.0657 114.358 79.3793C114.071 80.2454 113.695 81.1617 113.217 82.0954C111.867 84.7334 109.965 87.0332 107.413 88.7165C107.074 88.94 106.661 89.0176 106.266 88.9341L106.176 88.9121C105.762 88.7929 105.429 88.5195 105.238 88.1539L105.102 87.8715L105.035 87.7356L104.89 87.4519L104.73 87.1482C104.674 87.0438 104.615 86.9363 104.554 86.8261C104.034 85.8868 103.438 84.9339 102.777 84.027C100.944 81.5131 98.9734 79.8432 97.0159 79.4424C93.8136 78.7873 91.2433 77.9408 89.004 76.6127C86.1091 74.8957 84.1129 72.5139 83.2214 69.3348L83.1721 69.154C82.7235 67.4598 81.9331 65.4348 80.9378 63.2808C80.6302 62.6152 80.3217 61.9779 80.0237 61.3851L79.8966 61.1338C79.6928 60.733 79.5238 60.4118 79.4522 60.2803C79.188 59.7937 79.2092 59.2027 79.5064 58.7368L79.5485 58.6744C79.8526 58.246 80.358 58.0037 80.8854 58.0391L83.7135 58.2279L83.7569 58.191C85.0839 57.0825 86.7661 56.2931 88.7137 56.3155C90.7452 56.3387 92.6326 57.2975 94.3048 59.1157L94.4211 59.244C96.6654 61.7528 99.3889 62.3773 102.313 61.7237C104.401 61.2567 106.582 60.0982 108.439 58.4621C110.165 56.9411 111.426 55.1586 111.896 53.6111C112.093 52.9643 112.693 52.5247 113.369 52.5345C114.046 52.5441 114.633 53.0022 114.809 53.6559ZM113.48 54.1096L113.427 54.2387C112.732 55.8884 111.432 58.0966 109.754 59.5755C107.688 61.3962 105.156 62.5337 102.776 63.066C99.3414 63.8338 95.9854 63.2436 93.3053 60.3325L93.1874 60.2027C91.7882 58.6385 90.644 57.7592 88.7594 57.7268C86.8748 57.6944 85.6721 58.7511 84.5897 59.7404L84.5413 59.7815C84.3753 59.9121 84.1662 59.9772 83.954 59.963L80.4626 59.5961L81.2763 61.4381C81.5203 61.9957 81.6925 62.3968 81.7929 62.6411L82.6603 64.7664C85.2516 71.077 88.2106 77.2322 97.0593 77.7469L97.3598 77.7621C99.7135 77.8635 101.221 79.6888 103.033 82.2694L103.42 82.8236C103.898 83.5122 105.325 85.6602 105.877 86.658L106.057 86.9873L106.221 87.2971C106.255 87.3623 106.287 87.4249 106.318 87.4847L106.484 87.8174L106.677 87.6837C108.769 86.2035 110.536 83.569 111.69 81.3141C112.126 80.4621 112.469 79.6264 112.729 78.8403L112.763 78.7378C112.838 78.5076 112.898 78.3053 112.944 78.1353L112.978 78.0089L112.72 78.015C109.745 78.0582 106.612 77.3025 103.67 76.1388C102.96 75.8577 112.751 71.4974 113.36 62.6162C113.499 60.5921 113.95 57.9567 113.76 56.0352C113.7 55.4291 113.62 54.8682 113.528 54.361L113.48 54.1096Z" fill="#E7EAEE"/>
<path fill-rule="evenodd" clip-rule="evenodd" d="M88.4831 63.3968C89.1225 63.5681 89.7821 63.1873 89.9534 62.5478C90.1248 61.9084 89.744 61.2488 89.1045 61.0775C88.4651 60.9061 87.8055 61.2869 87.6341 61.9264C87.4628 62.5657 87.8436 63.2254 88.4831 63.3968Z" fill="#00160A"/>
<ellipse cx="88.6335" cy="66.8108" rx="1.8866" ry="1.54358" transform="rotate(15 88.6335 66.8108)" fill="#FFB61D"/>
<ellipse cx="88.6335" cy="66.8108" rx="1.8866" ry="1.54358" transform="rotate(15 88.6335 66.8108)" fill="#FFB61D"/>
<path d="M110.291 178.472C110.742 178.327 113.743 177.744 110.727 179.545C107.71 181.347 86.5247 186.743 76.4301 184.651C66.7008 182.635 59.2658 176.354 53.2675 169.133L53.069 168.893L53.0031 168.943C52.5642 169.27 52.1265 169.557 51.69 169.802L51.5025 169.906C50.7178 170.326 49.454 170.702 47.6791 171.056C47.2141 171.148 45.716 170.946 46.6706 170.382C47.6255 169.819 49.5623 169.158 50.6874 168.783C51.8123 168.407 51.9809 167.6 52.6472 167.034C53.0179 166.719 53.5762 166.776 53.8766 167.158C59.7079 174.582 67.4503 179.781 77.1939 181.8C86.9782 183.828 98.0271 182.399 110.291 178.472ZM166.142 196.726C166.561 196.507 165.968 198.717 165.549 198.939C160.536 201.571 152.877 202.506 142.913 200.477L142.61 200.414C132.507 198.321 121.248 188.871 120.412 187.414C119.576 185.956 121.304 187.122 121.623 187.472C126.196 192.506 133.36 196.047 143.136 198.072C152.899 200.095 161.5 199.163 166.142 196.726ZM223.087 144.332C223.823 144.19 224.827 145.117 223.884 145.923C221.798 147.709 223.21 154.963 222.749 155.071C222.286 155.174 221.828 154.883 221.724 154.421C221.165 151.918 220.974 149.998 221.165 148.629C221.259 147.947 221.412 147.304 221.623 146.701L221.648 146.632L215.653 147.79L215.569 147.833C214.071 148.636 213.195 149.798 213.452 152.343L213.467 152.491C213.769 155.167 214.915 157.337 216.609 157.713L216.742 157.742C220.485 158.665 223.011 158.141 224.17 156.989C225.629 155.542 226.43 153.635 225.599 149.284C225.51 148.819 225.252 145.697 226.303 147.555C227.355 149.412 227.629 156.449 225.726 158.338C224.137 159.916 221.093 160.102 217.217 159.258C217.214 159.363 217.192 159.468 217.148 159.569C216.127 161.932 214.589 163.179 212.592 163.123C211.065 163.081 209.647 162.214 208.527 160.744C203.274 160.48 198.031 160.816 192.796 161.755L192.02 161.896C189.345 162.393 187.782 162.789 186.591 163.261C185.892 163.538 185.292 163.852 184.622 164.284L184.513 164.356C183.746 164.878 180.82 167.021 179.502 167.915L179.14 168.16C176.09 170.207 172.337 172.452 167.275 175.18L167.135 175.254C165.257 176.202 160.616 177.411 154.977 178.374C168.966 181.594 180.375 178.984 189.302 170.557C189.695 170.186 190.328 170.267 190.616 170.724C198.66 183.5 209.829 191.408 224.164 194.481C238.537 197.563 249.931 196.666 258.368 191.834C258.779 191.599 259.303 191.741 259.539 192.152C259.774 192.563 259.631 193.087 259.22 193.322C250.369 198.391 234.132 199.623 219.379 196.46C205.033 193.384 198.149 185.289 189.919 172.809L189.719 172.503L189.585 172.622C179.968 181.154 163.083 184.733 148.226 180.867L147.761 180.743C132.594 176.679 125.814 166.991 118.271 154.212L118.212 154.112L118.167 154.133C105.86 159.887 96.8978 164.291 85.3792 162.904L85.023 162.86C72.2307 162.063 55.5797 150.592 53.6106 146.629C51.6417 142.666 54.8394 146.168 55.1755 146.501C61.9747 153.251 70.7652 157.483 82.2808 158.945C83.8701 159.146 85.4682 159.275 87.0742 159.336L87.1002 159.171C87.8496 154.434 88.3867 152.42 89.7048 150.296C91.498 147.407 94.4466 145.636 99.1077 144.85L100.386 144.65C106.121 143.764 110.649 143.159 115.316 142.642L115.658 142.605C116.181 142.547 116.711 142.49 117.252 142.433L117.781 142.379C118.42 142.328 144.339 139.263 158.991 137.688C161.201 137.454 163.696 137.848 166.631 138.799L166.884 138.881C169.078 139.61 171.19 140.501 174.618 142.086L177.628 143.485C180.991 145.041 182.636 145.739 184.593 146.416C187.488 147.417 189.63 148.47 191.531 148.208C197.219 147.425 202.39 146.842 207.206 145.868C207.817 144.482 208.673 143.568 209.755 143.104C211.424 142.387 213.38 142.892 214.896 144.004C215.278 144.284 215.36 144.82 215.081 145.202C214.8 145.584 212.256 143.296 210.431 144.68C209.058 145.721 208.179 147.644 208.02 151.852C207.905 154.902 210.845 160.928 212.64 161.409C214.683 161.956 215.67 160.048 216.224 159.032C213.828 158.455 212.424 156.466 212.025 153.262L212.006 153.104C211.622 149.707 212.614 147.332 215.011 146.194C215.054 146.174 215.1 146.156 215.146 146.143L215.216 146.127L223.087 144.332ZM206.537 147.445C202.165 148.321 197.452 149.113 192.399 149.82L191.764 149.908C189.602 150.205 187.02 150.133 183.999 149.111L183.766 149.031C181.705 148.319 180.005 147.594 176.472 145.958L173.836 144.731C166.4 141.291 162.554 140.035 159.016 140.376C159.016 140.376 106.228 145.565 99.3831 146.542C95.1902 147.25 93.4917 148.519 91.249 150.71C89.8951 152.033 88.8732 156.905 88.2415 159.368C97.9168 159.53 107.897 157.154 118.189 152.226C118.594 152.032 119.081 152.184 119.303 152.574C119.797 153.44 120.309 154.286 120.838 155.112L159.236 149.938C159.341 149.924 159.444 149.93 159.542 149.952C159.835 149.899 160.143 149.873 160.466 149.873C163.691 149.88 165.745 151.826 166.548 155.477L170.147 154.088C170.678 153.883 171.257 154.243 171.31 154.809C172.067 162.968 169.904 167.841 164.724 169.083C159.499 170.336 156.08 167.232 154.645 160.217C154.572 159.861 154.731 159.515 155.013 159.329C155.078 156.135 155.582 153.712 156.548 152.118L122.616 157.722C126.156 162.608 130.382 166.71 135.297 170.029C135.453 169.944 135.614 169.878 135.764 169.841C141.447 168.455 155.142 168.684 156.54 168.684C157.936 168.684 156.276 169.544 155.835 169.62L155.779 169.627L137.686 171.548C142.193 174.245 147.23 176.34 152.802 177.833C153.119 177.918 153.435 177.998 153.749 178.077C157.799 176.76 165.141 174.383 166.462 173.671L167.057 173.349C175.98 168.374 180.948 162.968 186.322 160.931C189.092 159.881 189.548 159.964 192.67 159.404C197.453 158.546 202.596 158.708 207.398 158.835C207.341 158.71 207.284 158.584 207.231 158.455C207.209 158.414 207.187 158.374 207.17 158.337C206.706 157.315 206.102 156.136 205.836 154.514L205.802 154.304C205.428 151.961 205.947 149.579 206.524 147.656L206.593 147.434L206.537 147.445ZM166.708 157.254L166.685 157.524C166.4 160.591 165.545 162.417 163.93 162.882L163.845 162.905C162.177 163.329 160.966 162.389 160.273 160.413L160.243 160.325L156.527 160.781L156.566 160.942C157.89 166.255 160.387 168.302 164.201 167.443L164.324 167.415C168.17 166.492 169.993 162.995 169.719 156.656L169.699 156.265L169.689 156.103L166.708 157.254ZM165.028 156.69C164.504 153.194 163.019 151.593 160.462 151.588C158.253 151.584 156.967 153.79 156.753 158.571L156.737 158.994L160.765 158.533C160.812 158.527 160.859 158.527 160.905 158.529C160.91 158.529 160.915 158.529 160.921 158.529C160.968 158.532 161.015 158.54 161.06 158.551C161.064 158.552 161.067 158.552 161.071 158.553L161.091 158.558C161.114 158.565 161.135 158.575 161.158 158.583C161.179 158.591 161.201 158.598 161.222 158.608C161.251 158.621 161.279 158.638 161.306 158.655C161.323 158.665 161.34 158.675 161.357 158.686C161.378 158.701 161.397 158.718 161.416 158.735C161.437 158.753 161.459 158.77 161.478 158.79C161.495 158.807 161.509 158.826 161.524 158.844C161.541 158.866 161.559 158.887 161.575 158.91C161.598 158.946 161.62 158.983 161.638 159.021C161.64 159.026 161.642 159.03 161.644 159.034C161.663 159.078 161.68 159.124 161.692 159.173C161.693 159.174 161.693 159.176 161.694 159.178C162.124 160.903 162.671 161.433 163.422 161.242C164.215 161.04 164.822 159.644 165.014 156.911L165.028 156.69ZM113.37 52.534C114.046 52.5438 114.633 53.0021 114.809 53.6557L114.853 53.8273L114.903 54.0461C114.933 54.1804 114.966 54.336 114.999 54.5105C115.116 55.1161 115.217 55.7933 115.29 56.5294C115.494 58.6013 115.445 60.7655 115.047 62.9269C114.507 65.8599 113.367 68.4591 111.656 70.6432L111.51 70.8256C110.142 72.523 108.426 73.9549 106.389 75.1059L106.188 75.2179L106.322 75.2609C108.619 75.9808 110.972 76.3889 113.163 76.2861C113.633 76.2641 114.086 76.4616 114.39 76.821C114.693 77.1797 114.813 77.6582 114.715 78.1172L114.682 78.2591L114.636 78.4459L114.617 78.5176C114.547 78.7769 114.461 79.0657 114.357 79.3793C114.071 80.2453 113.695 81.162 113.217 82.0956C111.867 84.7334 109.965 87.0333 107.413 88.7165C107.074 88.94 106.661 89.0173 106.266 88.9339L106.176 88.9118C105.763 88.7925 105.429 88.5195 105.238 88.1538L105.102 87.8718L105.034 87.7354L104.89 87.452L104.73 87.1482C104.674 87.0438 104.615 86.9364 104.554 86.8262C104.034 85.8869 103.438 84.9336 102.777 84.0266C100.944 81.5129 98.9734 79.8426 97.016 79.4419C93.8137 78.7868 91.2428 77.9407 89.0036 76.6126C86.1089 74.8956 84.1129 72.5137 83.2214 69.3349L83.1719 69.1538C82.7233 67.4596 81.9333 65.4346 80.9381 63.2808C80.6305 62.6151 80.3216 61.9775 80.0236 61.3848L79.8968 61.1334C79.6931 60.7327 79.5237 60.4118 79.4521 60.2803C79.1879 59.7937 79.2095 59.2028 79.5067 58.7369L79.5488 58.6744C79.8529 58.2461 80.3584 58.0034 80.8858 58.0388L83.7136 58.2273L83.7569 58.1904C85.0839 57.082 86.7662 56.2934 88.7137 56.3157C90.6298 56.3376 92.4172 57.1919 94.0172 58.8145C96.3113 58.6739 98.5504 57.5504 100.67 55.6936C101.705 54.7868 102.642 53.7649 103.464 52.7097C103.753 52.3386 104.008 51.9897 104.225 51.6722C104.301 51.5611 104.367 51.4614 104.423 51.3744L104.5 51.2563C104.782 50.8145 105.297 50.5771 105.816 50.6507C106.324 50.7222 106.723 51.0781 106.899 51.5575C106.996 51.823 107.085 52.0898 107.165 52.3576C107.911 54.8614 107.881 57.2147 107.405 59.297C107.758 59.0345 108.104 58.7566 108.439 58.4618C110.164 56.9409 111.425 55.1586 111.896 53.6112C112.093 52.9645 112.694 52.5242 113.37 52.534ZM113.427 54.2389C112.732 55.8885 111.432 58.0967 109.754 59.5755C108.754 60.4566 107.644 61.1758 106.496 61.7458C106.428 61.7963 106.352 61.8335 106.27 61.8559C105.116 62.4064 103.929 62.8083 102.776 63.0661C99.3416 63.8339 95.9853 63.2434 93.3052 60.3323L93.1873 60.2027C91.7881 58.6385 90.644 57.7586 88.7594 57.7262C86.875 57.6938 85.6725 58.7509 84.5902 59.7401L84.5417 59.7817C84.3757 59.9122 84.1663 59.9771 83.9542 59.963L80.4626 59.5956L81.2761 61.4383C81.52 61.9958 81.6925 62.397 81.7928 62.6413L82.6601 64.7663C85.2514 71.0769 88.211 77.2324 97.0596 77.747L97.36 77.7618C99.7136 77.8634 101.22 79.6888 103.033 82.2695L103.42 82.8229C103.898 83.5116 105.325 85.6601 105.877 86.658L106.057 86.9872L106.221 87.2972C106.255 87.3623 106.287 87.4251 106.318 87.4848L106.484 87.8176L106.677 87.6832C108.769 86.2029 110.537 83.5684 111.691 81.3136C112.127 80.4618 112.469 79.626 112.73 78.84L112.763 78.7377C112.838 78.5076 112.897 78.305 112.944 78.1351L112.978 78.0087L112.72 78.0145C109.745 78.0578 106.612 77.3022 103.67 76.1385C102.963 75.8559 112.75 71.4957 113.36 62.6164C113.499 60.5923 113.95 57.9561 113.76 56.0347C113.7 55.4288 113.62 54.868 113.528 54.361L113.48 54.1095L113.427 54.2389ZM89.105 61.0773C89.7442 61.2488 90.1247 61.9088 89.9534 62.5481C89.782 63.1873 89.1227 63.5678 88.4835 63.3968C87.8441 63.2255 87.4627 62.5659 87.6339 61.9266C87.8052 61.2872 88.4656 60.9059 89.105 61.0773ZM105.619 52.0526C105.618 52.0257 105.604 52.0488 105.575 52.1217C105.512 52.2181 105.44 52.3269 105.357 52.4476L105.255 52.5951C105.046 52.894 104.809 53.2151 104.546 53.5527C103.674 54.6722 102.68 55.7576 101.574 56.7265C99.924 58.1718 96.6125 59.1069 94.6136 59.4525C96.8204 61.7868 99.4719 62.3588 102.313 61.7237C103.65 61.4245 105.025 60.8393 106.329 60.0288C106.947 57.9295 107.679 54.4545 105.619 52.0526Z" fill="#00160A"/>
</svg>