<svg width="186" height="172" viewBox="0 0 186 172" fill="none" xmlns="http://www.w3.org/2000/svg">
<path fill-rule="evenodd" clip-rule="evenodd" d="M102.735 0C150.879 0 161.015 67.271 161.212 67.8245C161.415 68.3948 161.606 68.9818 161.791 69.5516C162.167 70.7086 162.65 71.8226 163.025 72.972C163.255 73.6732 163.677 74.2541 163.96 74.9163C164.509 76.1815 165.182 77.3886 165.969 78.5198C166.293 78.9678 166.548 79.4629 166.725 79.9881C166.849 80.3899 167.261 80.4972 167.439 80.8519C167.726 81.4261 168.11 81.9509 168.441 82.5021C168.517 82.696 168.69 82.8339 168.895 82.8627L168.83 83.4101C168.951 83.6072 168.992 83.3406 169.117 83.3876C169.275 83.6011 169.499 83.791 169.522 84.1161C169.543 84.4218 169.896 84.4506 170.018 84.7172C170.283 85.296 171.022 85.5911 171.011 86.3506C171.542 86.6866 171.803 87.2635 172.203 87.7162C172.409 87.9246 172.534 88.199 172.558 88.4904L172.562 88.5579C172.559 88.8475 173.114 88.7825 172.964 89.1778C173.814 89.8206 174.034 90.8708 174.483 91.7407C175.202 93.1368 176.032 94.4855 176.52 96.0142C176.765 96.7788 177.239 97.5022 177.503 98.2765C178.096 100.017 178.808 101.72 179.194 103.532C179.353 104.281 179.678 104.994 179.83 105.745L180.005 106.613C180.267 107.915 180.514 109.22 180.679 110.54C180.763 110.838 180.763 111.153 180.679 111.451C180.537 111.79 180.913 112.007 180.943 112.347C180.981 112.75 180.821 113.132 180.936 113.56C181 113.796 180.937 114.174 181.009 114.448C181.246 115.338 180.946 116.256 181.204 117.139C181.244 117.481 181.209 117.827 181.099 118.153C180.921 119.241 181.247 120.352 180.922 121.415C180.77 121.939 180.741 122.49 180.837 123.027L180.877 123.233C180.906 123.387 180.925 123.536 180.85 123.639C180.554 124.047 180.63 124.528 180.571 124.974L180.56 125.048C180.475 125.548 180.563 126.072 180.413 126.581C180.209 127.079 180.094 127.61 180.074 128.149C180.15 129.062 179.845 129.882 179.658 130.73C179.565 131.154 179.642 131.658 179.179 131.973C178.944 132.134 179.499 132.445 179.162 132.68L179.123 132.704C178.876 132.845 178.887 133.072 178.956 133.343C179.02 133.592 178.589 133.764 178.713 134.018C178.836 134.272 178.891 134.642 178.747 134.689C178.388 134.808 178.754 135.202 178.452 135.277C178.422 135.293 178.401 135.322 178.396 135.356C178.293 136.31 177.684 137.093 177.533 138.047C177.419 138.617 177.199 139.159 176.884 139.646C176.624 140.117 176.403 140.608 176.223 141.115C175.885 141.968 175.307 142.68 174.981 143.529C174.892 143.759 174.302 143.682 174.602 144.153C174.258 144.276 174.363 144.635 174.224 144.86C174.072 145.03 173.894 145.175 173.697 145.29C173.57 145.795 173.327 146.263 172.986 146.656C172.392 147.532 171.743 148.371 171.043 149.165L170.465 149.818C169.692 150.688 168.895 151.539 167.876 152.139C167.614 152.293 167.734 152.585 167.518 152.744C166.27 153.673 165.12 154.727 163.7 155.431C163.106 155.726 162.596 156.25 161.988 156.557C160.837 157.14 159.768 157.865 158.536 158.319L158.317 158.397C157.533 158.66 156.76 159.058 155.964 159.348C154.328 159.996 152.621 160.443 150.879 160.68L149.804 160.8C148.849 160.907 147.893 161.005 146.928 161.031C146.471 161.044 146.033 160.898 145.615 160.951C145.208 161.003 144.795 160.969 144.401 160.852C144.09 160.764 143.827 161.034 143.492 160.889C143.235 160.727 142.916 160.703 142.639 160.821L142.585 160.847C142.426 160.939 142.113 160.768 141.871 160.713C141.519 160.663 141.172 160.577 140.837 160.455C140.578 160.334 140.247 160.723 140.066 160.31C139.738 160.566 117.433 155.222 96.9435 166.074C95.275 167.189 93.3225 167.678 91.5396 168.544C90.7108 168.947 89.7791 169.131 88.8868 169.407L88.6963 169.467C87.1214 169.981 85.5062 170.331 83.8935 170.697C82.4118 171.02 80.9105 171.245 79.3993 171.37C78.3129 171.469 77.2213 171.515 76.1375 171.635C75.698 171.683 75.2671 171.37 74.8371 171.638C73.8708 171.373 72.8563 171.695 71.8927 171.396C71.2518 171.587 70.6496 171.35 70.0606 171.175C69.611 171.04 69.1874 171.319 68.7331 171.121C68.3196 170.904 67.8564 170.8 67.3903 170.821C66.6167 170.94 65.9432 170.654 65.2385 170.503C63.601 170.151 61.9693 169.771 60.3436 169.363C59.8111 169.229 59.2131 169.28 58.7569 168.87C58.3567 168.51 57.7252 168.735 57.332 168.31C57.1884 168.155 57.0054 168.455 56.7892 168.338C56.3677 168.11 55.8258 168.26 55.4319 167.849C55.1401 167.544 54.5893 167.75 54.2662 167.382L54.2236 167.328C54.033 167.061 53.5298 167.69 53.3809 167.096C52.7797 167.049 52.2814 166.719 51.746 166.492C51.3024 166.306 50.779 166.411 50.3787 166.022C50.0376 165.69 49.393 165.934 49.0976 165.436C48.3748 165.431 47.8417 164.885 47.1528 164.742C46.6299 164.603 46.1278 164.395 45.6599 164.122C44.9182 163.738 44.1649 163.375 43.4061 163.032C43.1338 162.904 42.8688 162.761 42.6122 162.604C42.4683 162.519 42.4334 162.331 42.2278 162.286C40.9266 161.995 39.8323 161.231 38.7208 160.562C38.087 160.232 37.4806 159.851 36.9073 159.423L36.7174 159.279C36.5497 159.134 36.2012 159.062 36.0537 158.86C35.6424 158.297 35.0272 158.021 34.4694 157.683L34.377 157.626C34.0628 157.439 33.7771 157.207 33.529 156.938C33.4821 156.887 33.463 156.775 33.4131 156.763C32.4872 156.532 31.9346 155.761 31.2267 155.222C30.6177 154.759 30.0851 154.195 29.4855 153.722L29.2572 153.55C27.8539 152.538 12.4991 135.503 10.7592 132.563L10.2613 131.722C9.76409 130.879 9.27262 130.03 8.82009 129.164L8.43473 128.427C8.04997 127.688 7.67126 126.944 7.33644 126.187L6.88848 125.177C5.99475 123.155 5.1202 121.123 4.37481 119.036C3.71013 117.173 3.15987 115.28 2.60435 113.386C2.24854 112.17 1.94787 110.948 1.69386 109.708C1.28805 107.728 0.926182 105.739 0.608262 103.742C0.311741 101.862 0.421424 99.9546 0.0254435 98.0959C0.284874 96.9544 -0.19209 95.7961 0.104067 94.6558C-0.115627 94.0929 0.0775543 93.5086 0.0982027 92.9538C0.119382 92.3809 -0.00807918 91.7808 0.218832 91.2002C0.32278 90.9365 0.0824957 90.6195 0.212687 90.2974C0.355608 90.0294 0.372103 89.7111 0.257663 89.4296C0.643463 89.2508 0.183605 88.9755 0.343818 88.7208C0.516554 88.4443 0.59286 88.1179 0.560683 87.7929C0.448337 87.0655 0.863887 86.3939 0.790935 85.7368C0.714867 85.0648 1.04403 84.4951 1.04299 83.8928L1.03875 83.7795C0.981938 82.9889 1.54254 82.3935 1.56124 81.6455C1.56301 81.5799 1.71644 81.5196 1.80057 81.4545C1.77358 81.2863 1.58903 81.3244 1.45812 81.1936C1.66711 81.0107 1.84997 80.7996 2.00151 80.5663C2.11621 80.2463 2.19767 79.9153 2.24458 79.5785L1.71316 78.8873C1.90926 78.4919 1.8409 78.1322 2.10272 77.8222C2.21667 77.6867 2.15313 77.2727 2.1672 76.9868C2.18575 76.6113 2.66431 76.3877 2.54886 76.0912C2.45981 75.7501 2.48866 75.3887 2.63067 75.0663C3.31534 72.023 4.01273 68.9827 4.72286 65.9454C4.79755 65.6198 4.73256 65.2103 5.12994 65.0196C4.69572 64.5676 5.37763 64.4098 5.38821 64.0515C5.44356 63.7166 5.57157 63.3981 5.76312 63.1187C6.03433 62.5958 6.05928 61.9468 6.21376 61.3575C6.25445 60.941 6.41095 60.5444 6.66532 60.2133C6.92984 59.937 6.89172 59.456 7.09091 59.0683C7.37229 58.5997 7.59037 58.0955 7.73939 57.5689C7.78427 57.1905 7.93388 56.8324 8.17116 56.5355C8.38185 56.301 8.20881 55.8154 8.61832 55.6384C8.73317 54.9578 9.13623 54.4112 9.43463 53.8149L9.48925 53.7024C10.2222 52.1679 11.0461 50.679 11.9563 49.2438C12.7125 48.0359 13.4484 46.8152 14.2161 45.6148C14.4659 45.2275 14.7315 44.8413 15.0062 44.4735C15.9603 43.1207 16.988 41.8219 18.0847 40.5833C19.0876 39.5117 20.0437 38.392 21.0968 37.3616C21.6566 36.8134 22.1147 36.1404 22.6582 35.5581C23.939 34.1838 25.2543 32.8467 26.6377 31.5776C27.806 30.4139 29.0836 29.3669 30.4527 28.4514C30.8248 28.2232 31.1309 27.8886 31.4902 27.636C31.9263 27.3938 32.3449 27.1207 32.7426 26.8188C33.2053 26.38 33.773 26.101 34.2404 25.6945C34.6032 25.3792 35.1835 25.559 35.4432 24.9917C35.6324 24.5789 36.3408 24.7301 36.5793 24.2478C37.2333 24.2259 37.5386 23.5876 38.1325 23.3777L38.2117 23.3529C38.8373 23.1808 39.3713 22.6716 39.9453 22.3105C40.499 21.9153 41.0783 21.5577 41.6794 21.2404C42.8079 20.728 43.782 19.9473 44.885 19.4181C45.9368 18.9142 46.8833 18.1765 48.0303 17.8956C48.3014 17.8294 48.2508 17.5885 48.4373 17.4856C48.6314 17.3781 48.844 17.4493 49.0193 17.3253C49.7447 16.8481 54.5909 0 102.735 0Z" fill="#BC294B"/>
<path fill-rule="evenodd" clip-rule="evenodd" d="M48.428 36.1132C46.8175 37.0292 44.4595 35.8607 44.1951 34.0155C45.2223 33.9602 46.3203 33.8795 47.1322 33.2428C47.9442 32.6062 48.2285 31.1964 47.4145 30.5624C40.7879 29.7418 34.3416 27.4718 28.6493 23.9543C32.5361 22.7734 35.8806 20.2826 39.5314 18.4929C43.1823 16.7033 47.598 15.6449 51.2391 17.4545C54.8144 19.2314 58.9303 16.9648 62.6612 15.5499C69.1487 13.0896 76.5879 13.2959 82.9314 16.112C87.5596 18.1666 95.4021 14.8317 100.402 14.0668C108.569 12.8175 116.541 18.5886 124.742 17.5892C123.862 18.1756 122.982 18.7621 122.102 19.3486C122.969 19.2688 123.84 19.2365 124.71 19.252C117.904 22.5355 111.099 25.8191 104.293 29.1026C106.017 29.8057 107.741 30.5089 109.465 31.212C109.06 32.522 107.607 33.4068 106.268 33.1588C107.345 34.023 108.423 34.8873 109.5 35.7516C108.35 36.575 106.895 36.9532 105.493 36.793C106.986 37.7645 108.218 39.1389 109.025 40.7341C112.58 39.54 116.475 39.393 120.108 40.3157C116.825 40.7496 113.542 41.1836 110.259 41.6176C110.755 42.9786 111.251 44.3396 111.746 45.7006C116.035 44.7109 120.594 44.9359 124.766 46.3432C120.629 46.4494 116.491 46.5556 112.353 46.6617C112.257 52.1964 109.524 57.8406 104.725 60.5302C99.9267 63.2198 90.3378 65.6113 87.1617 57.7801C84.7302 59.3891 84.9023 63.2567 86.636 65.6113C88.3696 67.9659 91.1239 69.269 93.615 70.7827C101.889 75.8105 108.13 84.1369 110.669 93.5353C113.208 102.934 112.016 113.301 107.412 121.865C113.619 122.837 119.386 126.398 123.066 131.53C130.99 127.813 135.379 119.33 141.45 112.989C148.355 105.776 157.887 101.179 167.79 100.285C173.649 99.7558 180.331 100.895 183.749 105.722C188.191 111.997 184.096 121.753 177.005 124.638C171.384 126.924 165.044 125.774 158.998 126.206C146.84 127.075 136.166 134.303 126.141 141.292C125.732 143.555 126.552 146.005 128.238 147.555C131.824 143.818 136.348 141.002 141.269 139.445C143.087 138.869 145.814 139.019 146.016 140.93C146.092 141.654 145.715 142.34 145.333 142.957C142.052 148.259 137.426 152.708 132.018 155.762C129.164 157.374 125.974 158.623 122.707 158.439C119.44 158.254 116.114 156.353 115.004 153.25C114.49 151.812 114.434 150.147 113.46 148.975C111.813 146.993 108.649 147.587 106.34 148.712C104.03 149.838 101.569 151.37 99.091 150.701C92.8965 149.031 86.4498 148.315 80.0433 148.585C71.8844 148.929 63.5713 150.844 55.6665 148.779C53.0259 148.088 50.0708 147 47.7315 148.415C43.1213 151.203 46.2309 160.129 41.5012 162.706C39.826 163.619 37.7728 163.283 35.9246 162.82C27.7571 160.776 20.0962 156.706 13.8064 151.069C13.2003 150.526 12.5757 149.916 12.4058 149.116C11.8961 146.718 15.4072 145.72 17.7997 146.164C21.8638 146.919 25.7507 148.627 29.0651 151.115C30.227 151.987 31.9949 150.969 32.4871 149.596C32.9794 148.222 32.6406 146.71 32.4485 145.262C31.2351 136.119 36.9245 126.506 45.4817 123.24C40.3008 115.618 38.3307 105.851 40.1471 96.793C41.9634 87.7354 47.5421 79.5073 55.2532 74.5125C58.3337 72.5172 61.873 70.8852 63.8362 67.7692C65.7994 64.6531 64.9377 59.4254 61.3463 58.707C57.9625 62.402 52.4585 63.9649 47.6594 62.5934C42.8603 61.2219 38.9883 56.9796 38.0307 52.0439C34.8455 53.1286 31.6602 54.2132 28.4749 55.2978C31.3021 53.101 34.6502 51.5905 38.1588 50.929C38.4956 49.458 38.8323 47.9869 39.169 46.5158C33.0911 46.1205 26.9275 47.129 21.2856 49.442C24.7574 46.8072 29.1747 45.4682 33.5121 45.7361C37.9237 46.0086 42.4082 43.8323 44.949 40.1858C43.3594 39.6223 41.9307 38.6051 40.8723 37.2831C42.4935 36.3959 44.457 36.166 46.2368 36.655M79.6077 132.593C79.3184 132.877 79.0071 133.214 79.0275 133.621C79.0479 134.027 79.6528 134.331 79.8615 133.982C81.0005 132.08 82.9814 130.712 85.1523 130.329C87.3233 129.946 89.6471 130.554 91.3593 131.953C91.9567 132.441 92.49 133.025 93.1725 133.382C93.4181 133.51 93.8386 133.514 93.8488 133.235C93.8522 133.143 93.8002 133.06 93.7491 132.984C92.5197 131.157 90.6812 129.754 88.603 129.058C86.7813 128.448 84.6705 128.409 83.0413 129.433C82.4496 129.804 81.945 130.299 81.4455 130.789C80.8329 131.39 80.2203 131.992 79.6077 132.593ZM70.7733 129.269C68.4148 128.954 65.8756 129.752 64.305 131.554C64.0281 131.871 63.7765 132.229 63.6813 132.64C63.586 133.052 63.6755 133.529 63.9919 133.806C65.2068 131.903 67.3658 130.648 69.608 130.541C71.8501 130.435 74.1167 131.479 75.5039 133.259C75.7209 133.537 75.9278 133.841 76.2357 134.011C76.5436 134.181 76.9917 134.159 77.1791 133.86C77.4029 133.503 77.1323 133.045 76.8562 132.727C75.2891 130.923 73.1318 129.583 70.7733 129.269ZM87.4096 126.834C87.3731 127.236 87.8999 127.486 88.2785 127.355C88.6571 127.223 88.9081 126.871 89.1616 126.559C91.2701 123.959 95.2849 123.176 98.2031 124.795C98.5859 124.469 98.6077 123.844 98.3515 123.41C98.0954 122.975 97.6277 122.709 97.1505 122.555C96.1168 122.222 94.9945 122.336 93.9309 122.553C91.4135 123.066 88.8705 124.269 87.5471 126.489C87.4831 126.596 87.4209 126.709 87.4096 126.834ZM77.5126 135.269C76.4781 135.342 75.4654 135.618 74.4969 135.991C73.1583 136.508 71.8403 137.26 71.0567 138.47C72.2058 138.798 73.3074 137.935 74.3571 137.36C76.7119 136.072 79.7663 136.205 82.0019 137.694C82.7034 138.161 83.6046 138.764 84.2886 138.271C82.6885 136.249 80.0723 135.09 77.5126 135.269ZM81.7635 134.617C82.5482 134.205 83.1756 133.535 83.954 133.111C85.026 132.526 86.3615 132.458 87.4861 132.932C88.0968 133.189 88.6375 133.592 89.2393 133.869C89.841 134.147 90.5577 134.291 91.1572 134.009C91.2238 133.977 91.2926 133.936 91.3207 133.867C91.3663 133.756 91.2853 133.636 91.2067 133.546C89.8652 132.002 87.7632 131.165 85.7374 131.369C83.7117 131.573 81.8151 132.812 80.8027 134.593C81.014 134.873 81.4537 134.78 81.7635 134.617ZM66.0473 134.691C66.4677 134.45 66.7966 134.077 67.1811 133.781C67.9498 133.189 68.9512 132.917 69.912 133.029C70.9827 133.155 71.9482 133.726 72.8337 134.346C73.0927 134.527 73.3569 134.718 73.664 134.79C73.9711 134.862 74.3368 134.783 74.5106 134.518C74.6824 134.256 74.6134 133.89 74.4295 133.636C74.2456 133.382 73.9695 133.215 73.7005 133.056C72.6061 132.409 71.4494 131.762 70.1823 131.696C68.5984 131.613 67.1262 132.446 65.7564 133.252C65.2009 133.579 64.5629 134.074 64.6805 134.711C65.0608 135.013 65.6268 134.932 66.0473 134.691ZM73.1805 128.5C73.4664 128.873 74.0263 128.473 74.342 128.126C75.3144 127.054 76.716 126.391 78.1546 126.321C79.5933 126.252 81.0515 126.777 82.1212 127.749C82.391 127.994 82.6756 128.284 83.0387 128.294C83.4018 128.304 83.729 127.793 83.4409 127.57C81.8988 126.375 80.1045 125.399 78.164 125.27C76.2236 125.141 74.1322 126.019 73.2338 127.758C73.1134 127.991 73.0212 128.292 73.1805 128.5ZM90.3377 128.173C90.5938 128.064 90.7816 127.842 90.9776 127.643C92.4707 126.129 95.0001 125.79 96.8333 126.859C97.2918 127.127 97.9813 127.422 98.2477 126.96C98.4699 126.575 98.0739 126.127 97.6962 125.896C95.2305 124.389 91.7157 124.963 89.8483 127.179C89.658 127.404 89.4755 127.714 89.6062 127.979C89.7299 128.23 90.0817 128.282 90.3377 128.173ZM91.7006 128.315C91.5947 128.405 91.489 128.505 91.4444 128.637C91.3198 129.005 91.7634 129.349 92.148 129.318C92.5325 129.287 92.8594 129.038 93.2083 128.872C94.0589 128.468 95.0812 128.564 95.9446 128.94C96.2862 129.089 96.6172 129.281 96.9851 129.337C97.353 129.393 97.7823 129.27 97.9498 128.935C96.4866 127.106 93.489 126.809 91.7006 128.315ZM68.5655 127.614C68.7839 127.717 69.0818 127.697 69.2223 127.5C69.4134 127.231 69.2087 126.865 69.0059 126.605C68.3191 125.724 67.5804 124.857 66.6365 124.267C65.6926 123.676 64.5037 123.392 63.4524 123.754C63.3455 124.146 63.8288 124.412 64.2091 124.545C65.6734 125.06 67.0024 125.961 68.0281 127.134C68.1876 127.316 68.3471 127.51 68.5655 127.614ZM81.5057 128.596C79.7776 127.485 77.4188 127.465 75.6729 128.548C75.3694 128.736 75.0576 129 75.0341 129.359C75.0105 129.717 75.4932 130.05 75.7325 129.784C76.697 128.712 78.4594 128.489 79.6562 129.289C80.2438 129.681 81.0877 129.627 81.6219 129.164C81.8742 129.137 81.7195 128.734 81.5057 128.596ZM94.0763 134.609C91.6208 134.441 89.336 135.898 87.5537 137.609C87.6834 137.911 88.126 137.831 88.4259 137.701C90.4556 136.815 92.4852 135.929 94.5149 135.044C94.6675 134.84 94.3288 134.626 94.0763 134.609ZM70.7073 135.711C71.0093 135.884 71.3051 136.118 71.6522 136.119C71.9993 136.119 72.3434 135.698 72.1233 135.427C71.4299 134.575 70.3402 134.065 69.247 134.082C68.1538 134.099 67.0801 134.642 66.4129 135.515C66.4951 135.833 66.8804 135.979 67.2023 135.931C67.5242 135.884 67.8078 135.701 68.1063 135.571C68.9321 135.21 69.9245 135.263 70.7073 135.711ZM82.8831 135.478C82.8555 135.722 83.1295 135.909 83.3725 135.895C83.6154 135.882 83.8288 135.739 84.0419 135.62C84.9363 135.124 86.0378 135.022 87.0069 135.346C87.628 135.554 88.4029 135.894 88.8512 135.413C88.8904 135.139 88.6171 134.931 88.3742 134.801C87.5037 134.334 86.5454 133.982 85.5594 133.991C84.5734 134 83.556 134.417 82.9931 135.234C82.9418 135.308 82.8933 135.389 82.8831 135.478ZM81.0506 124.782C82.0656 125.148 83.011 125.71 83.8209 126.427C84.1547 126.723 84.4743 127.051 84.8794 127.235C85.2844 127.42 85.8101 127.424 86.1272 127.11C85.4257 126.568 84.8495 125.862 84.4565 125.064C84.2449 124.633 83.6806 124.555 83.2049 124.531C82.5098 124.497 81.8147 124.463 81.1196 124.428C81.0462 124.528 81.0201 124.662 81.0506 124.782ZM71.9841 127.243C72.343 126.905 72.6078 126.479 72.9394 126.113C73.4536 125.547 74.1308 125.133 74.8666 124.935C75.1841 124.85 75.6015 124.686 75.5535 124.358C74.6542 124.201 73.628 124.074 72.9188 124.653C71.9254 125.464 71.1379 126.53 70.6506 127.722C71.1301 127.828 71.6252 127.581 71.9841 127.243ZM63.9898 126.832C64.6343 127.256 65.2788 127.679 65.9233 128.103C66.1962 128.282 66.5445 128.465 66.8276 128.303C67.0902 128.152 67.1304 127.764 66.9935 127.492C66.8566 127.221 66.5955 127.039 66.3449 126.869C65.8201 126.513 65.2954 126.156 64.7706 125.8C64.3312 125.502 63.6154 125.264 63.3763 125.741C63.1702 126.152 63.6071 126.581 63.9898 126.832ZM77.5601 131.922C77.8067 132.169 78.1522 132.436 78.4655 132.284C78.6084 132.215 78.7004 132.074 78.7851 131.939C79.0645 131.493 79.3439 131.048 79.6233 130.603C78.8917 129.783 77.4557 129.761 76.6999 130.558C76.6418 130.62 76.5852 130.69 76.5749 130.774C76.5584 130.907 76.6605 131.022 76.7551 131.117C77.0234 131.385 77.2917 131.654 77.5601 131.922ZM66.2818 138.289C66.8059 138.474 67.4245 138.529 67.8868 138.219C67.1909 137.412 66.3752 136.71 65.4754 136.144C65.2201 135.983 64.9323 135.828 64.6344 135.871C64.3365 135.914 64.0729 136.255 64.2171 136.521C64.6599 137.338 65.4103 137.981 66.2818 138.289ZM95.0385 131.802C95.2862 131.501 95.534 131.199 95.7817 130.897C95.867 130.793 95.9571 130.676 95.9518 130.541C95.945 130.37 95.7895 130.247 95.6415 130.163C95.1268 129.871 94.519 129.749 93.9327 129.82C93.7085 129.847 93.4749 129.909 93.3172 130.072C93.1595 130.235 93.1141 130.525 93.2727 130.687C93.6323 131.054 93.9919 131.421 94.3515 131.789C94.469 131.909 94.6179 132.039 94.7814 132.003C94.8894 131.979 94.968 131.888 95.0385 131.802ZM69.1914 125.283C69.4136 125.524 69.6927 125.771 70.018 125.744C70.7157 125.686 70.9406 124.472 71.6376 124.538C71.8247 124.227 71.314 123.979 70.9533 123.973C70.0198 123.958 69.0863 123.943 68.1528 123.928C68.4576 124.41 68.8056 124.864 69.1914 125.283ZM74.9565 138.512C76.8983 138.503 78.8402 138.495 80.782 138.486C80.6118 138.099 80.1563 137.942 79.7451 137.856C78.3977 137.574 76.9846 137.617 75.6565 137.98C75.3591 138.062 75.0196 138.208 74.9565 138.512ZM86.9463 136.451C86.3038 136.481 85.6613 136.51 85.0189 136.539C84.8114 136.549 84.5453 136.609 84.5197 136.817C84.5083 136.91 84.5545 136.999 84.5992 137.081C84.7691 137.392 84.9499 137.715 85.2436 137.911C85.5373 138.107 85.9794 138.127 86.208 137.856C86.3832 137.649 86.397 137.326 86.6058 137.154C86.7404 137.043 86.9271 137.021 87.076 136.93C87.2249 136.839 87.3197 136.603 87.1816 136.496C87.1169 136.446 87.0278 136.448 86.9463 136.451ZM70.3104 137.535C70.4821 137.265 70.3197 136.883 70.0522 136.709C69.7848 136.535 69.4505 136.514 69.1327 136.499C68.7818 136.481 68.3197 136.546 68.2567 136.895C68.2267 137.061 68.3106 137.224 68.3917 137.372C68.6298 137.805 68.9801 138.302 69.4692 138.253C69.8483 138.215 70.1049 137.859 70.3104 137.535ZM95.6909 133.65C95.9792 133.674 96.2377 133.477 96.44 133.269C97.057 132.633 97.4494 131.78 97.5323 130.894C97.3282 130.762 97.0784 130.966 96.922 131.153C96.3966 131.779 95.8712 132.406 95.3458 133.032C95.159 133.255 95.4026 133.626 95.6909 133.65ZM63.5513 129.213C63.8443 129.583 64.4094 129.699 64.8223 129.474C65.0337 129.358 65.2121 129.13 65.1701 128.891C65.1327 128.679 64.9409 128.535 64.7641 128.413C64.5086 128.238 64.2531 128.062 63.9977 127.886C63.9196 127.833 63.8299 127.776 63.7375 127.796C63.6737 127.809 63.6225 127.856 63.5797 127.906C63.2709 128.262 63.2583 128.843 63.5513 129.213ZM86.2417 125.311C86.5486 125.571 87.0033 125.303 87.3077 125.04C87.6381 124.756 87.9685 124.471 88.2989 124.186C88.1119 124.006 87.813 124.047 87.5598 124.1C86.8242 124.253 86.0887 124.406 85.3531 124.559C85.6493 124.81 85.9455 125.061 86.2417 125.311ZM97.793 121.673C97.9782 121.906 98.3681 121.856 98.5804 121.648C98.7927 121.44 98.8712 121.133 98.932 120.841C98.9467 120.771 98.9603 120.695 98.9311 120.63C98.8569 120.464 98.6123 120.514 98.4484 120.591C98.0076 120.798 97.4884 121.291 97.793 121.673Z" fill="white"/>
<path fill-rule="evenodd" clip-rule="evenodd" d="M40.1472 96.7929C41.9635 87.7353 48.1738 80.153 55.885 75.1582C51.9862 80.5469 40.0218 89.3836 43.8673 99.2285C50.0144 114.966 73.9277 117.441 73.0958 117.612C58.9521 120.519 38.7948 103.537 40.1472 96.7929Z" fill="#E7EAEE"/>
<path d="M62.6606 15.5498C69.1482 13.0895 76.5876 13.2962 82.9312 16.1123C86.0486 17.4962 89.3787 16.4344 92.7485 15.3604C94.3814 14.8399 96.0239 14.317 97.6558 14.0674C101.81 13.432 105.913 14.6126 110.022 15.7949C113.991 16.9371 117.966 18.08 121.996 17.5889L119.356 19.3486C120.222 19.2688 121.094 19.2365 121.963 19.252L101.546 29.1025L106.719 31.2119C106.314 32.522 104.861 33.4072 103.522 33.1592L106.753 35.752C105.604 36.5751 104.149 36.9531 102.748 36.793C104.24 37.7644 105.471 39.1393 106.279 40.7344C109.834 39.5403 113.728 39.3929 117.362 40.3154L107.513 41.6182L109 45.7012C113.289 44.7115 117.847 44.9364 122.02 46.3438L109.607 46.6621C109.51 52.1967 106.778 57.8407 101.979 60.5303C97.1804 63.2198 90.3952 62.2537 87.1616 57.7803C84.7301 59.3892 84.9018 63.2567 86.6353 65.6113C88.055 67.5396 90.16 68.7626 92.2437 69.9736C92.7042 70.2413 93.1638 70.5092 93.6147 70.7832C101.889 75.811 108.13 84.137 110.668 93.5352C113.207 102.933 112.016 113.301 107.413 121.865C113.619 122.838 119.386 126.399 123.066 131.53C128.486 128.988 132.252 124.216 136.033 119.426V119.425C137.78 117.211 139.531 114.993 141.45 112.989C148.355 105.777 157.887 101.179 167.79 100.285C173.649 99.7562 180.331 100.895 183.749 105.723C188.191 111.997 184.095 121.753 177.004 124.638C173.156 126.203 168.97 126.158 164.772 126.112H164.767C162.836 126.091 160.902 126.07 158.998 126.206C146.84 127.075 136.165 134.303 126.14 141.292C125.731 143.555 126.552 146.005 128.238 147.555C131.824 143.818 136.347 141.002 141.268 139.444C143.087 138.869 145.813 139.019 146.015 140.931C146.091 141.654 145.714 142.34 145.333 142.957C142.052 148.259 137.426 152.708 132.018 155.762C129.163 157.374 125.973 158.623 122.707 158.438C119.44 158.254 116.113 156.353 115.003 153.25C114.833 152.774 114.714 152.273 114.594 151.773C114.352 150.764 114.112 149.759 113.46 148.976C111.813 146.993 108.648 147.587 106.339 148.713C106.041 148.859 105.739 149.011 105.436 149.164C103.393 150.198 101.248 151.283 99.0903 150.701C92.896 149.031 86.4489 148.315 80.0425 148.585C77.7337 148.682 75.4121 148.906 73.0913 149.129L70.8862 149.337C65.7448 149.804 60.6254 150.074 55.6665 148.778C55.3553 148.697 55.0396 148.61 54.7212 148.522C52.3377 147.866 49.7946 147.167 47.731 148.415C45.4458 149.797 45.057 152.688 44.6704 155.565C44.2771 158.493 43.8855 161.407 41.5005 162.707C39.8253 163.619 37.7723 163.283 35.9243 162.82C27.7568 160.776 20.0959 156.706 13.8062 151.069C13.2 150.526 12.5757 149.916 12.4058 149.116C11.8964 146.718 15.4069 145.72 17.7993 146.164C21.8634 146.918 25.7505 148.627 29.0649 151.115C30.2268 151.987 31.9946 150.969 32.4868 149.596C32.9077 148.421 32.7207 147.144 32.5376 145.894C32.5066 145.682 32.4755 145.471 32.4478 145.262C31.2347 136.119 36.9241 126.505 45.481 123.24C40.3003 115.617 38.3307 105.85 40.147 96.793C41.9634 87.7355 47.5423 79.5074 55.2534 74.5127C55.894 74.0977 56.5543 73.698 57.2163 73.2979H57.2173L57.2183 73.2969C59.7387 71.7734 62.2809 70.2366 63.8354 67.7695C65.7986 64.6535 64.9375 59.4255 61.3462 58.707C57.9623 62.402 52.4578 63.9652 47.6587 62.5938C42.8598 61.2222 38.9883 56.9795 38.0308 52.0439L28.4741 55.2979C31.3013 53.101 34.6501 51.5902 38.1587 50.9287L39.1685 46.5156C33.0907 46.1204 26.9275 47.1295 21.2856 49.4424C24.7575 46.8076 29.1749 45.4685 33.5122 45.7363C37.9237 46.0086 42.408 43.8319 44.9487 40.1855C43.3591 39.6221 41.93 38.6051 40.8716 37.2832C42.4928 36.3959 44.4571 36.1663 46.2368 36.6553L43.1567 38.4941C50.2141 39.8445 58.2968 41.9692 61.2778 48.5586C58.4191 45.9512 55.4312 43.2677 51.7417 42.1416C48.0521 41.0155 43.448 41.9281 41.4644 45.2607C42.2867 45.4006 43.0573 45.8321 43.6099 46.4619L40.8618 46.7578C40.09 47.8772 39.8354 49.3439 40.1841 50.6611C41.4664 50.1622 42.926 50.1425 44.2212 50.6064C42.9016 51.3667 41.4178 51.8352 39.9038 51.9697C40.0593 56.8573 44.622 60.8375 49.4429 61.374C54.2637 61.9104 59.0497 59.6109 62.6392 56.3223C67.4881 59.4715 67.6573 67.7667 62.9409 71.1143C54.174 77.3364 44.9492 84.4478 41.9517 94.8262C41.3649 96.8577 41.0467 99.0674 41.729 101.068C42.282 102.69 43.4394 104.023 44.6362 105.241C50.7835 111.499 58.751 115.918 67.2847 117.801C68.9413 118.166 70.8644 118.376 72.1587 117.271C73.4529 116.167 72.9157 113.369 71.2271 113.526C65.2975 114.078 61.2655 107.715 59.0444 102.145C56.8235 96.5741 53.9059 89.9755 48.0161 89.0928C51.6733 88.7237 55.1963 90.9918 57.3667 93.9824C59.5371 96.9732 60.6103 100.609 61.645 104.165C67.6052 103.019 73.7547 102.879 79.7603 103.752C79.4341 99.0885 79.1338 94.2411 80.8364 89.8926C83.2259 83.7901 89.7386 79.5975 96.2349 79.9785C95.6597 81.763 93.5938 82.1197 91.6353 82.458L90.939 82.5811C90.7105 82.6234 90.4863 82.6677 90.269 82.7168C86.2618 83.6221 83.3529 87.3392 82.188 91.3096C81.0231 95.2801 81.2865 99.5151 81.5601 103.646L90.2563 103.572L101.59 88.8223C99.824 94.3716 96.4151 99.3788 91.9146 103.036C95.8276 100.96 100.8 104.522 101.909 108.838C103.017 113.154 101.492 117.664 99.9878 121.856L106.33 121.909C108.275 116.165 109.64 110.22 110.396 104.198C108.285 105.494 105.749 106.073 103.291 105.82C105.034 103.501 107.513 101.752 110.272 100.896L109.736 95.6621C107.223 97.9885 103.885 99.3905 100.477 99.5508C102.781 96.5223 105.579 93.8764 108.724 91.7529C106.923 84.9752 102.605 78.9094 96.813 75.0195C95.7226 74.2873 94.5743 73.6222 93.4272 72.958C90.7754 71.4224 88.1281 69.8891 86.2056 67.5293C83.4514 64.1486 83.18 58.1177 87.0444 56.1279C90.1576 60.0252 95.9066 61.5149 100.498 59.6133C105.088 57.7117 108.139 52.5779 107.635 47.5996L104.732 47.3955C106.927 47.137 107.486 43.4093 105.465 42.5078C104.54 43.0794 103.345 43.1827 102.336 42.7783L104.962 40.8174C101.091 38.4446 96.0438 38.1518 91.9282 40.0605C87.8126 41.9694 84.7488 46.0247 84.0171 50.5322C83.3918 46.3863 85.7219 42.1363 89.1919 39.8242C92.6618 37.5122 97.0634 36.9464 101.183 37.5225L100.558 35.2314C101.491 34.916 102.527 34.9198 103.458 35.2412C102.361 34.4992 101.52 33.3797 101.108 32.1143L103.902 31.4961C102.459 31.1794 101.154 30.2613 100.363 29.0039C98.1351 29.9375 95.6717 30.2925 93.2739 30.0244L102.364 27.1006C106.556 25.7519 109.644 21.4839 109.636 17.0469C100.91 14.6551 91.2895 15.7655 83.3247 20.083C83.5372 19.107 84.4043 18.3127 85.3882 18.1924C82.9865 16.836 80.3469 15.9085 77.6294 15.4658C76.7906 17.9435 75.0807 20.1119 72.8755 21.4941C72.6841 19.1634 73.671 16.7643 75.4429 15.2549L72.5483 14.8457C71.4434 17.5297 69.5216 19.8654 67.1089 21.4551C67.1705 19.2471 67.7682 17.056 68.8354 15.127L62.3296 21.1602C61.8282 19.3671 62.4919 17.3004 63.9409 16.1445C61.5018 16.4619 59.1749 17.6042 57.4224 19.3438C58.9402 19.8119 60.2057 21.0447 60.7202 22.5586C54.0566 17.5368 44.3923 16.9678 37.1938 21.1729C37.0424 24.596 39.9312 27.549 43.1636 28.6074C46.3959 29.6657 49.8969 29.2669 53.271 28.8574C52.7943 30.2397 51.0984 31.0494 49.7358 30.5449L47.9819 34.498C47.7008 35.1314 47.7508 36.2396 48.4272 36.1133C46.8168 37.029 44.4592 35.8606 44.1948 34.0156C45.222 33.9603 46.3203 33.8798 47.1323 33.2432C47.9441 32.6065 48.2282 31.1966 47.4146 30.5625C40.7879 29.742 34.3413 27.4716 28.6489 23.9541C31.1713 23.1878 33.4657 21.8698 35.7632 20.5498C37.0058 19.8359 38.2494 19.1213 39.5308 18.4932C43.1816 16.7035 47.5976 15.6454 51.2388 17.4551C54.2642 18.9586 57.6768 17.5661 60.9155 16.2451C61.504 16.0051 62.087 15.7674 62.6606 15.5498ZM45.9468 109.043C44.6133 108.353 42.9629 108.071 41.6265 108.755C41.3284 109.471 41.8675 110.303 42.5571 110.649C43.0795 110.911 43.6656 110.983 44.2495 111.054C44.4365 111.076 44.6235 111.099 44.8081 111.128C45.6863 111.266 46.5412 111.554 47.3247 111.977C48.1479 112.421 48.9274 113.595 48.1938 114.178C47.893 114.416 47.4711 114.399 47.0894 114.371L42.7817 114.052C43.8319 116.933 45.1704 119.707 46.771 122.317C46.9147 122.552 47.1071 122.812 47.3804 122.814C51.6009 122.853 56.3142 123.448 58.9888 126.74C59.4957 127.364 59.9107 128.266 59.4761 128.943C57.0244 125.959 53.1893 124.181 49.3462 124.248C45.5031 124.315 41.7313 126.225 39.3833 129.293C41.4556 130.691 43.1034 132.721 44.0532 135.046C44.34 135.748 44.2872 136.896 43.5347 136.881L39.0122 131.299C38.8101 131.049 38.5669 130.778 38.2476 130.769C37.9916 130.761 37.7661 130.926 37.563 131.083C37.1232 131.424 36.6667 131.785 36.437 132.294C36.2074 132.803 36.2928 133.504 36.771 133.787C38.8096 134.994 40.4457 136.88 41.3618 139.077C41.5896 139.623 41.7335 140.353 41.2788 140.729C40.6931 141.212 39.8619 140.589 39.3696 140.009L35.1733 135.065C34.169 137.698 33.709 140.54 33.8296 143.357C33.8538 143.923 33.8989 144.497 33.9448 145.073C34.1202 147.274 34.2977 149.505 33.2866 151.414C32.8431 152.251 32.0882 153.02 31.1489 153.081C30.6166 153.116 30.0982 152.919 29.6069 152.71C28.26 152.136 26.9327 151.43 25.606 150.725C22.1905 148.908 18.7776 147.092 15.0376 147.525C14.527 147.585 13.8911 147.839 13.9106 148.356C13.9196 148.588 14.0694 148.788 14.2153 148.968C19.6075 155.607 28.04 158.827 36.2026 161.258C37.5376 161.655 38.9448 162.043 40.3042 161.741C41.6636 161.439 42.9254 160.203 42.7612 158.81C42.327 155.122 43.4729 151.273 45.8491 148.437C46.7978 147.304 47.9976 146.296 49.437 145.994C51.2052 145.624 52.9334 146.359 54.6353 147.082H54.6372C55.0738 147.268 55.5095 147.453 55.9429 147.618C59.2697 148.886 63.0094 149.025 66.4194 148.006C65.0863 147.988 64.4458 146.377 64.1694 145.062C62.3792 136.541 61.4273 127.842 61.3325 119.133C61.322 118.186 60.6632 117.348 59.8687 116.844C59.1959 116.416 58.4283 116.179 57.6655 115.942H57.6646C57.5269 115.9 57.3893 115.857 57.2524 115.813C54.4751 114.926 51.8575 113.532 49.5659 111.718L48.7085 111.018C47.8315 110.291 46.9535 109.564 45.9468 109.043ZM116.077 126.837C111.881 123.72 106.336 123.219 101.126 123.378C100.931 123.384 100.715 123.399 100.578 123.539C100.473 123.645 100.438 123.8 100.408 123.946L97.5503 137.618C96.7704 141.349 95.8226 145.371 92.9185 147.813C96.4816 149.569 100.793 149.707 104.459 148.183C105.011 147.953 105.558 147.685 106.105 147.418C107.663 146.657 109.225 145.895 110.922 145.99C112.705 146.09 114.393 147.236 115.155 148.864C115.45 149.496 115.61 150.177 115.77 150.859C115.908 151.449 116.047 152.04 116.273 152.6C117.383 155.341 120.492 156.855 123.429 156.832C126.366 156.809 129.148 155.528 131.685 154.037C136.641 151.124 141.127 147.232 144.118 142.297C144.31 141.979 144.504 141.614 144.417 141.252C144.268 140.629 143.455 140.488 142.821 140.538C138.797 140.859 135.529 143.54 132.334 146.161C131.655 146.719 130.979 147.274 130.299 147.803C129.664 148.298 128.953 148.796 128.15 148.795C126.697 148.794 125.779 147.238 125.304 145.854C124.711 144.125 124.321 142.317 123.932 140.514C123.268 137.434 122.606 134.366 120.941 131.732C120.875 131.629 120.8 131.52 120.685 131.478C120.472 131.399 120.262 131.585 120.11 131.754L116.968 135.25C116.649 135.605 116 135.342 115.835 134.893C115.671 134.443 115.839 133.943 116.042 133.511C116.825 131.849 118.165 130.459 119.791 129.624C119.287 128.75 118.021 128.632 117.109 129.053C116.394 129.383 115.828 129.947 115.264 130.509C115.109 130.663 114.955 130.818 114.797 130.967C114.067 131.659 113.153 132.289 112.153 132.218C111.952 132.203 111.744 132.155 111.594 132.02C111.195 131.659 111.454 130.996 111.764 130.555C112.869 128.983 114.365 127.693 116.077 126.837ZM96.4771 135.088C94.2476 137.292 91.2736 138.614 88.2241 139.29C85.1748 139.966 82.0279 140.037 78.9058 140.025C74.3794 140.008 69.8531 139.822 65.3403 139.468C65.0612 139.446 64.9843 139.846 65.0151 140.127C65.1901 141.713 65.4381 143.29 65.7583 144.853C65.8627 145.362 65.9975 145.91 66.396 146.241C66.7233 146.513 67.1665 146.584 67.5864 146.643C74.6388 147.624 81.8035 147.784 88.8921 147.119C89.6565 147.047 90.4308 146.963 91.146 146.682C93.1906 145.877 94.3179 143.651 94.854 141.505C95.03 140.8 95.1628 140.082 95.2964 139.364C95.5696 137.896 95.8432 136.43 96.4771 135.088ZM173.956 101.297C169.621 100.624 165.206 101.585 160.993 102.811C155.299 104.466 149.625 106.686 145.118 110.564C142.295 112.993 140.041 115.973 137.783 118.958C136.188 121.066 134.592 123.176 132.792 125.097C130.092 127.979 126.932 130.423 123.473 132.31C123.144 132.489 123.219 132.979 123.34 133.336L125.603 139.984C127.529 139.294 129.233 138.113 130.919 136.943C131.044 136.857 131.169 136.77 131.293 136.684C140.183 130.538 150.201 125.247 160.975 124.938C162.422 124.897 163.878 124.946 165.333 124.994C168.378 125.096 171.417 125.197 174.36 124.474C177.744 123.642 180.901 121.659 182.846 118.746C184.791 115.833 185.409 111.972 184.147 108.699C182.558 104.578 178.29 101.97 173.956 101.297ZM84.2886 138.271C82.6884 136.249 80.0719 135.09 77.5122 135.27C76.4778 135.342 75.465 135.618 74.4966 135.991C73.158 136.508 71.8397 137.261 71.0562 138.471C72.0041 138.741 72.9205 138.201 73.8013 137.681C73.9881 137.57 74.1733 137.461 74.3569 137.36C76.7115 136.072 79.7659 136.205 82.0015 137.693L82.0083 137.698C82.7088 138.165 83.6068 138.763 84.2886 138.271ZM79.7446 137.856C78.3974 137.575 76.9847 137.618 75.6567 137.98C75.3594 138.062 75.0197 138.208 74.9565 138.512L80.7817 138.486C80.6115 138.099 80.1557 137.942 79.7446 137.856ZM64.6343 135.871C64.3364 135.914 64.073 136.255 64.2173 136.521C64.66 137.338 65.4104 137.981 66.2817 138.289C66.8058 138.474 67.424 138.529 67.8862 138.219C67.1904 137.412 66.3748 136.71 65.4751 136.144C65.2199 135.983 64.932 135.828 64.6343 135.871ZM69.1323 136.499C68.7816 136.482 68.3196 136.546 68.2563 136.895C68.2264 137.061 68.31 137.224 68.3911 137.372C68.6292 137.806 68.9802 138.302 69.4692 138.253C69.8483 138.215 70.1046 137.859 70.3101 137.535C70.4817 137.265 70.3197 136.883 70.0522 136.709C69.7848 136.535 69.4501 136.515 69.1323 136.499ZM85.019 136.539C84.8116 136.549 84.5456 136.61 84.52 136.817C84.5086 136.91 84.5544 136.999 84.5991 137.081C84.769 137.392 84.95 137.715 85.2437 137.911C85.5373 138.107 85.9789 138.126 86.2075 137.856C86.2861 137.764 86.3326 137.647 86.3784 137.531C86.4346 137.389 86.491 137.249 86.606 137.154C86.6823 137.091 86.7753 137.057 86.8687 137.022C86.94 136.996 87.0112 136.969 87.0757 136.93C87.2246 136.839 87.3192 136.603 87.1812 136.496C87.1165 136.446 87.0271 136.447 86.9458 136.451L85.019 136.539ZM94.0767 134.608C91.6212 134.441 89.3355 135.898 87.5532 137.609C87.6829 137.912 88.1264 137.831 88.4263 137.7L94.5151 135.044C94.6676 134.84 94.3291 134.626 94.0767 134.608ZM69.2466 134.082C68.1535 134.099 67.0797 134.642 66.4126 135.516C66.495 135.833 66.8808 135.979 67.2026 135.932C67.4345 135.897 67.6468 135.793 67.8589 135.688C67.941 135.648 68.0227 135.607 68.106 135.57C68.9317 135.21 69.9247 135.263 70.7075 135.711C70.7674 135.745 70.8274 135.783 70.8872 135.819C71.1289 135.968 71.3739 136.119 71.6519 136.119C71.999 136.119 72.3437 135.697 72.1235 135.427C71.4302 134.575 70.3397 134.065 69.2466 134.082ZM85.5591 133.991C84.5732 134 83.5555 134.417 82.9927 135.233C82.9414 135.308 82.8935 135.389 82.8833 135.479C82.8557 135.722 83.1296 135.909 83.3726 135.896C83.5803 135.884 83.7668 135.777 83.9497 135.673C83.9805 135.655 84.0108 135.637 84.0415 135.62C84.9359 135.123 86.0382 135.022 87.0073 135.347C87.0692 135.367 87.1324 135.39 87.1968 135.412C87.7791 135.614 88.4476 135.846 88.8511 135.413C88.8901 135.139 88.6173 134.931 88.3745 134.801C87.504 134.334 86.5451 133.982 85.5591 133.991ZM70.1821 131.696C68.5983 131.614 67.1262 132.446 65.7563 133.252C65.201 133.579 64.5629 134.074 64.6802 134.711C65.0604 135.012 65.6269 134.932 66.0474 134.69C66.3115 134.539 66.5397 134.335 66.7681 134.132C66.903 134.011 67.0384 133.891 67.1812 133.781C67.9497 133.189 68.951 132.917 69.9116 133.029C70.9823 133.155 71.948 133.726 72.8335 134.346L72.8628 134.366C73.1125 134.541 73.3681 134.721 73.6636 134.79C73.9706 134.862 74.3365 134.784 74.5103 134.519C74.6821 134.256 74.6131 133.89 74.4292 133.636C74.2453 133.382 73.9696 133.215 73.7007 133.056C72.6063 132.408 71.4492 131.762 70.1821 131.696ZM91.2065 133.546C89.8652 132.002 87.7633 131.165 85.7378 131.369C83.7121 131.573 81.8146 132.812 80.8022 134.593C81.0135 134.873 81.4534 134.78 81.7632 134.617C82.1646 134.406 82.5249 134.128 82.8853 133.85C83.2293 133.584 83.5734 133.318 83.9536 133.11C85.0256 132.526 86.3612 132.459 87.4858 132.933C87.814 133.071 88.1222 133.251 88.4302 133.431C88.6953 133.586 88.9605 133.741 89.2388 133.869C89.8404 134.147 90.5573 134.291 91.1567 134.009C91.2233 133.977 91.2927 133.936 91.3208 133.867C91.3661 133.756 91.285 133.636 91.2065 133.546ZM88.603 129.058C86.7815 128.447 84.6707 128.409 83.0415 129.433C82.4499 129.804 81.9452 130.299 81.4458 130.789L79.6079 132.593C79.3186 132.877 79.0074 133.215 79.0278 133.621C79.0485 134.028 79.6532 134.331 79.8618 133.982C81.0008 132.08 82.9811 130.712 85.1519 130.329C87.3227 129.946 89.6467 130.554 91.3589 131.953C91.5367 132.098 91.7092 132.252 91.8813 132.406C92.2873 132.769 92.6931 133.131 93.1724 133.382C93.418 133.51 93.8389 133.513 93.8491 133.234C93.8523 133.143 93.8004 133.06 93.7495 132.984C92.52 131.157 90.6812 129.754 88.603 129.058ZM70.7729 129.269C68.4146 128.954 65.8757 129.752 64.3052 131.554C64.0283 131.871 63.7764 132.229 63.6812 132.641C63.5859 133.052 63.6753 133.529 63.9917 133.807C65.2066 131.904 67.3658 130.649 69.6079 130.542C71.85 130.435 74.1162 131.48 75.5034 133.259C75.5308 133.294 75.5582 133.33 75.5854 133.365L75.5864 133.366C75.775 133.612 75.9672 133.862 76.2358 134.011C76.5436 134.181 76.9917 134.159 77.1792 133.86C77.403 133.503 77.132 133.045 76.856 132.728C75.2889 130.923 73.1315 129.583 70.7729 129.269ZM97.5327 130.894C97.3286 130.762 97.0788 130.967 96.9224 131.153L95.3462 133.032C95.1594 133.255 95.4026 133.626 95.6909 133.65C95.9792 133.674 96.2377 133.477 96.4399 133.269C97.0569 132.633 97.4499 131.779 97.5327 130.894ZM79.6235 130.603C78.8919 129.782 77.4555 129.761 76.6997 130.559C76.6418 130.62 76.5852 130.69 76.5747 130.773C76.5583 130.907 76.6608 131.023 76.7554 131.117L77.5601 131.922C77.8067 132.169 78.152 132.435 78.4653 132.284C78.6082 132.215 78.7 132.073 78.7847 131.938L79.6235 130.603ZM93.9321 129.82C93.7081 129.848 93.4744 129.909 93.3169 130.072C93.1594 130.235 93.1144 130.525 93.2729 130.687L94.3511 131.789C94.4686 131.909 94.6183 132.039 94.7817 132.003C94.8895 131.979 94.9682 131.888 95.0386 131.803L95.7817 130.897C95.8671 130.794 95.957 130.676 95.9517 130.541C95.9448 130.37 95.7891 130.247 95.6411 130.163C95.1264 129.871 94.5184 129.749 93.9321 129.82ZM81.5054 128.597C79.7773 127.485 77.4183 127.465 75.6724 128.548C75.3691 128.736 75.0575 129 75.0337 129.358C75.0101 129.717 75.4936 130.05 75.7329 129.784C76.6974 128.712 78.4589 128.49 79.6558 129.289C80.2433 129.681 81.0874 129.627 81.6216 129.164C81.8738 129.138 81.7192 128.734 81.5054 128.597ZM63.7378 127.796C63.674 127.809 63.6224 127.857 63.5796 127.906C63.2711 128.263 63.2585 128.843 63.5513 129.213C63.8442 129.582 64.4089 129.698 64.8218 129.474C65.0331 129.359 65.2121 129.13 65.1704 128.892C65.133 128.679 64.941 128.535 64.7642 128.413L63.9976 127.887C63.9196 127.833 63.8301 127.777 63.7378 127.796ZM97.9497 128.935C96.4865 127.106 93.489 126.809 91.7007 128.315C91.5948 128.405 91.4894 128.505 91.4448 128.637C91.3202 129.005 91.7634 129.349 92.1479 129.318C92.4262 129.296 92.6743 129.159 92.9224 129.022C93.017 128.97 93.1122 128.919 93.2085 128.873C94.0591 128.469 95.0814 128.565 95.9448 128.94C96.0266 128.976 96.1078 129.015 96.189 129.053C96.4468 129.174 96.7052 129.294 96.9849 129.337C97.3528 129.393 97.7822 129.27 97.9497 128.935ZM78.1636 125.271C76.2232 125.142 74.1323 126.019 73.2339 127.758C73.1136 127.991 73.0213 128.292 73.1802 128.5C73.4661 128.873 74.0266 128.474 74.3423 128.126C75.3147 127.055 76.7162 126.391 78.1548 126.321C79.5933 126.252 81.0519 126.777 82.1216 127.749C82.1433 127.769 82.1651 127.789 82.187 127.81C82.4375 128.04 82.7049 128.285 83.0386 128.294C83.4016 128.304 83.7286 127.794 83.4409 127.57C81.8988 126.376 80.1041 125.399 78.1636 125.271ZM64.771 125.801C64.3315 125.502 63.6155 125.264 63.3765 125.741C63.1706 126.152 63.6071 126.582 63.9897 126.833L65.9233 128.103C66.1962 128.282 66.5446 128.465 66.8276 128.303C67.0901 128.152 67.1305 127.764 66.9937 127.492C66.8568 127.221 66.5957 127.039 66.3452 126.869L64.771 125.801ZM97.6958 125.896C95.2301 124.389 91.7155 124.963 89.8481 127.179C89.658 127.404 89.4757 127.713 89.606 127.979C89.7297 128.23 90.0813 128.282 90.3374 128.173C90.5556 128.08 90.7248 127.905 90.8911 127.732C90.9198 127.703 90.9483 127.673 90.9771 127.644C92.4701 126.129 95.0003 125.79 96.8335 126.859C97.292 127.127 97.9812 127.422 98.2476 126.96C98.4695 126.575 98.0734 126.127 97.6958 125.896ZM75.5532 124.358C74.6539 124.201 73.6276 124.074 72.9185 124.653C71.9253 125.465 71.1381 126.53 70.6509 127.722C71.1302 127.828 71.6251 127.581 71.9839 127.243C72.1948 127.045 72.3737 126.815 72.5522 126.586C72.6775 126.425 72.8023 126.264 72.939 126.113C73.4532 125.547 74.1309 125.133 74.8667 124.936C75.1841 124.85 75.6012 124.686 75.5532 124.358ZM66.6362 124.268C65.6923 123.677 64.5039 123.393 63.4526 123.755C63.3461 124.146 63.8293 124.412 64.2095 124.546C65.6736 125.061 67.0023 125.961 68.0278 127.134L68.062 127.173C68.2105 127.343 68.3631 127.518 68.5659 127.614C68.7841 127.717 69.0817 127.697 69.2222 127.5C69.4133 127.231 69.2082 126.864 69.0054 126.604C68.3187 125.724 67.58 124.858 66.6362 124.268ZM97.1509 122.556C96.1173 122.223 94.9947 122.336 93.9312 122.553C91.4138 123.066 88.8708 124.27 87.5474 126.489C87.4835 126.596 87.421 126.709 87.4097 126.834C87.3732 127.236 87.9002 127.486 88.2788 127.354C88.6193 127.236 88.8567 126.939 89.0854 126.653L89.1333 126.594L89.1616 126.559C91.2701 123.959 95.2845 123.176 98.2026 124.795C98.5854 124.469 98.6072 123.843 98.3511 123.409C98.0949 122.976 97.6277 122.709 97.1509 122.556ZM81.1196 124.429C81.0462 124.528 81.0198 124.662 81.0503 124.782C82.0653 125.149 83.0109 125.71 83.8208 126.428C83.8508 126.454 83.8808 126.481 83.9106 126.508L83.9897 126.579C84.2655 126.83 84.5429 127.082 84.8794 127.235C85.2844 127.42 85.8104 127.424 86.1274 127.11C85.426 126.568 84.8495 125.862 84.4565 125.063C84.2448 124.634 83.6802 124.555 83.2046 124.531L81.1196 124.429ZM68.1528 123.929C68.4574 124.41 68.8053 124.865 69.1909 125.283C69.4131 125.524 69.6927 125.771 70.0181 125.744C70.3551 125.716 70.5823 125.418 70.8052 125.125C71.0435 124.812 71.2773 124.505 71.6372 124.539C71.8243 124.228 71.3143 123.979 70.9536 123.973L68.1528 123.929ZM88.2983 124.187C88.1114 124.007 87.8131 124.047 87.5601 124.1L85.353 124.56L86.2417 125.312C86.5485 125.571 87.0037 125.302 87.3081 125.04L88.2983 124.187ZM99.1772 105.491C98.7447 104.84 97.9671 104.364 97.2036 104.511C90.3607 105.824 83.3933 105.634 76.4106 105.255L73.4175 105.085C70.4091 104.91 67.4003 104.736 64.4009 104.666C63.8654 104.654 63.3019 104.651 62.8315 104.909C62.3613 105.168 62.0372 105.781 62.2788 106.263C63.6467 108.991 66.4735 110.732 69.4038 111.518C69.6141 111.574 69.8295 111.629 70.0474 111.685C71.9428 112.171 74.0299 112.707 74.7183 114.485C75.2405 115.835 74.6258 117.439 73.5327 118.38C72.4397 119.32 70.9696 119.696 69.5366 119.802C66.9545 119.993 64.319 119.384 62.0776 118.077L63.0024 121.606C63.0423 121.758 63.0902 121.922 63.2153 122.016C63.3241 122.097 63.4678 122.108 63.603 122.115L76.8921 122.819C78.8293 122.922 80.7694 123.024 82.7085 122.968C88.1475 122.809 93.5464 121.377 98.3589 118.817C98.6363 118.67 98.9188 118.512 99.1187 118.269C99.3568 117.978 99.4511 117.597 99.5308 117.229C100.205 114.111 100.322 110.872 99.8735 107.714C99.7635 106.938 99.6098 106.142 99.1772 105.491ZM98.9312 120.63C98.8569 120.464 98.6125 120.514 98.4487 120.591C98.008 120.798 97.4886 121.291 97.7925 121.673C97.9777 121.905 98.3682 121.856 98.5806 121.648C98.7928 121.441 98.8713 121.134 98.9321 120.842C98.9468 120.772 98.9603 120.695 98.9312 120.63ZM41.4565 103.887C41.3707 104.219 41.3307 104.563 41.3384 104.906C41.3452 105.21 41.4032 105.54 41.6284 105.742C41.8145 105.909 42.0653 105.948 42.3179 105.987C42.5413 106.022 42.7668 106.057 42.9497 106.181C43.0781 106.117 43.0066 105.921 42.9194 105.807L41.4565 103.887ZM66.8647 58.374C67.4799 58.0242 68.2709 58.0114 68.897 58.3408C69.523 58.6704 69.9648 59.3322 70.0317 60.041C70.0807 60.5603 69.98 61.1856 70.3813 61.5146C70.7229 60.3115 71.4755 59.2305 72.4819 58.498C72.8589 59.5821 73.2368 60.6659 73.6138 61.75C74.006 61.257 74.4503 60.8058 74.936 60.4062C75.1094 60.2637 75.2985 60.1224 75.52 60.0908C75.7414 60.0593 75.9991 60.1771 76.0503 60.3965C76.1034 60.6253 75.9251 60.8368 75.7603 61.0029C75.3043 61.4622 74.8481 61.9216 74.3921 62.3809C74.1539 62.6207 73.8826 62.8758 73.5464 62.8916C73.0417 62.9152 72.6835 62.3956 72.5337 61.9092C72.3839 61.4227 72.3178 60.8746 71.9604 60.5146C71.6471 61.314 71.1251 62.0289 70.4614 62.5684C70.1678 62.807 69.7291 63.0094 69.439 62.7666C69.3366 62.6807 69.2768 62.5533 69.2349 62.4258C69.0614 61.8988 69.1382 61.3267 69.1313 60.7715C69.1244 60.2163 68.9966 59.6027 68.5503 59.2773C68.0208 58.8915 67.1362 58.9731 66.8647 58.374ZM69.4604 41.9717C70.623 41.829 71.7999 41.8047 72.9673 41.8994C73.4689 41.9401 74.0013 42.0157 74.3853 42.3438C74.7691 42.6718 74.9076 43.3371 74.5376 43.6807C72.7209 45.3644 71.6565 47.8452 71.6841 50.333C72.3577 50.7739 73.0426 51.2196 73.8101 51.458C74.5775 51.6965 75.4518 51.7043 76.144 51.2939C76.6368 51.0018 76.9961 50.5275 77.4497 50.1768C77.9033 49.8262 78.5527 49.6088 79.0386 49.9121C78.4222 50.4843 77.8054 51.0567 77.189 51.6289C76.452 52.313 75.5364 53.0497 74.561 52.8193C74.0458 52.6976 73.6307 52.3209 73.1519 52.0938C72.1968 51.6408 71.0764 51.8108 70.0444 52.0342C69.0123 52.2576 67.9346 52.5248 66.9165 52.2432C65.8986 51.9614 65.0061 50.8945 65.3247 49.8799C65.9656 50.8256 67.0813 51.4258 68.2173 51.4346C68.6534 51.4379 69.103 51.3536 69.4644 51.1074C70.204 50.6033 70.3784 49.5985 70.4878 48.7051C70.5608 48.109 70.6008 47.414 70.1665 47.0029C69.356 46.236 68.6459 45.3612 68.061 44.4082C67.806 43.9927 67.5666 43.5072 67.688 43.0342C67.8716 42.3195 68.7336 42.0609 69.4604 41.9717ZM55.7954 35.6221C57.5147 35.1822 59.295 35.959 60.8501 36.8193C61.2001 37.013 61.56 37.2242 61.7808 37.5596C62.0014 37.8951 62.0345 38.3929 61.7466 38.6719C61.2646 39.1388 60.4997 38.658 59.9556 38.2666C59.0028 37.5814 57.8579 37.1703 56.6899 37.0947C56.3144 37.0704 55.9194 37.0761 55.5884 36.8955C55.2574 36.7149 55.034 36.264 55.2397 35.9463C55.3596 35.7614 55.5831 35.6764 55.7954 35.6221ZM86.2866 34.1895C86.6278 34.1219 87.034 34.0893 87.271 34.3457C87.5375 34.6345 87.4047 35.1344 87.1089 35.3926C86.8132 35.6505 86.4125 35.7376 86.0356 35.8428C84.8951 36.1612 83.8216 36.7234 82.9077 37.4814C82.5564 37.7729 82.14 38.1168 81.7017 37.9941C81.2377 37.8642 81.0618 37.2408 81.2407 36.79C81.4197 36.3393 81.8363 36.0344 82.2466 35.7803C83.485 35.0134 84.8605 34.4719 86.2866 34.1895Z" fill="#00160A"/>
</svg>
