<svg width="402" height="504" viewBox="0 0 402 504" fill="none" xmlns="http://www.w3.org/2000/svg">
<g clip-path="url(#clip0_133_491)">
<g filter="url(#filter0_d_133_491)">
<path d="M0 -1V381.053C0 381.053 32.2351 449.788 115.112 441.811C197.989 433.835 215.177 390.876 315.243 470.049C315.243 470.049 350.543 503.185 415 501.967V-1H0Z" fill="#BC294B"/>
</g>
<g filter="url(#filter1_d_133_491)">
<path d="M402.149 504C349.355 504 318.072 479.662 317.738 479.381C255.185 430.238 216.838 439.61 163.778 452.6C149.705 456.044 135.138 459.609 118.529 462.6C37.3493 477.232 -2.59944 434.67 -3 434.229L-2.01196 433.335C-1.62476 433.762 37.8967 475.777 118.275 461.291C134.858 458.301 149.385 454.749 163.444 451.305C216.878 438.235 255.478 428.796 318.553 478.34C318.94 478.647 356.899 508.152 419.853 501.757L419.987 503.079C413.805 503.72 407.85 504 402.149 504Z" fill="#C56F83" fill-opacity="0.7" shape-rendering="crispEdges"/>
</g>
<path d="M238.056 133L118.18 174.189L238.056 150.745L123.044 190.25L312.761 147.636L40 231.956L376 154.242L118.18 229.625L312.761 193.358L154.664 243.743L301.295 212.528L206.784 269" stroke="#FAFAED" stroke-width="100"/>
<path d="M107.696 214.336C103.632 214.336 100.272 213.392 97.616 211.504C94.992 209.584 93.568 206.784 93.344 203.104H104.672C104.832 205.056 105.696 206.032 107.264 206.032C107.84 206.032 108.32 205.904 108.704 205.648C109.12 205.36 109.328 204.928 109.328 204.352C109.328 203.552 108.896 202.912 108.032 202.432C107.168 201.92 105.824 201.344 104 200.704C101.824 199.936 100.016 199.184 98.576 198.448C97.168 197.712 95.952 196.64 94.928 195.232C93.904 193.824 93.408 192.016 93.44 189.808C93.44 187.6 94 185.728 95.12 184.192C96.272 182.624 97.824 181.44 99.776 180.64C101.76 179.84 103.984 179.44 106.448 179.44C110.608 179.44 113.904 180.4 116.336 182.32C118.8 184.24 120.096 186.944 120.224 190.432H108.752C108.72 189.472 108.48 188.784 108.032 188.368C107.584 187.952 107.04 187.744 106.4 187.744C105.952 187.744 105.584 187.904 105.296 188.224C105.008 188.512 104.864 188.928 104.864 189.472C104.864 190.24 105.28 190.88 106.112 191.392C106.976 191.872 108.336 192.464 110.192 193.168C112.336 193.968 114.096 194.736 115.472 195.472C116.88 196.208 118.096 197.232 119.12 198.544C120.144 199.856 120.656 201.504 120.656 203.488C120.656 205.568 120.144 207.44 119.12 209.104C118.096 210.736 116.608 212.016 114.656 212.944C112.704 213.872 110.384 214.336 107.696 214.336ZM155.84 180.016V214H145.184V200.752H135.056V214H124.4V180.016H135.056V192.256H145.184V180.016H155.84ZM171.05 180.016V199.168C171.05 200.736 171.386 201.984 172.058 202.912C172.762 203.808 173.882 204.256 175.418 204.256C176.954 204.256 178.09 203.808 178.826 202.912C179.562 201.984 179.93 200.736 179.93 199.168V180.016H190.538V199.168C190.538 202.4 189.866 205.168 188.522 207.472C187.178 209.744 185.338 211.456 183.002 212.608C180.666 213.76 178.058 214.336 175.178 214.336C172.298 214.336 169.738 213.76 167.498 212.608C165.29 211.456 163.562 209.744 162.314 207.472C161.066 205.2 160.442 202.432 160.442 199.168V180.016H171.05ZM208.43 214.336C204.366 214.336 201.006 213.392 198.35 211.504C195.726 209.584 194.302 206.784 194.078 203.104H205.406C205.566 205.056 206.43 206.032 207.998 206.032C208.574 206.032 209.054 205.904 209.438 205.648C209.854 205.36 210.062 204.928 210.062 204.352C210.062 203.552 209.63 202.912 208.766 202.432C207.902 201.92 206.558 201.344 204.734 200.704C202.558 199.936 200.75 199.184 199.31 198.448C197.902 197.712 196.686 196.64 195.662 195.232C194.638 193.824 194.142 192.016 194.174 189.808C194.174 187.6 194.734 185.728 195.854 184.192C197.006 182.624 198.558 181.44 200.51 180.64C202.494 179.84 204.718 179.44 207.182 179.44C211.342 179.44 214.638 180.4 217.07 182.32C219.534 184.24 220.83 186.944 220.958 190.432H209.486C209.454 189.472 209.214 188.784 208.766 188.368C208.318 187.952 207.774 187.744 207.134 187.744C206.686 187.744 206.318 187.904 206.03 188.224C205.742 188.512 205.598 188.928 205.598 189.472C205.598 190.24 206.014 190.88 206.846 191.392C207.71 191.872 209.07 192.464 210.926 193.168C213.07 193.968 214.83 194.736 216.206 195.472C217.614 196.208 218.83 197.232 219.854 198.544C220.878 199.856 221.39 201.504 221.39 203.488C221.39 205.568 220.878 207.44 219.854 209.104C218.83 210.736 217.342 212.016 215.39 212.944C213.438 213.872 211.118 214.336 208.43 214.336ZM256.574 180.016V214H245.918V200.752H235.79V214H225.134V180.016H235.79V192.256H245.918V180.016H256.574ZM292.809 180.016V214H282.153V200.752H272.025V214H261.369V180.016H272.025V192.256H282.153V180.016H292.809ZM311.955 177.76L310.707 200.512H301.587L300.339 177.76H311.955ZM306.147 214.384C304.291 214.384 302.803 213.888 301.683 212.896C300.563 211.904 300.003 210.656 300.003 209.152C300.003 207.616 300.563 206.352 301.683 205.36C302.803 204.336 304.291 203.824 306.147 203.824C307.971 203.824 309.443 204.336 310.563 205.36C311.683 206.352 312.243 207.616 312.243 209.152C312.243 210.656 311.683 211.904 310.563 212.896C309.443 213.888 307.971 214.384 306.147 214.384Z" fill="#BC294B"/>
</g>
<defs>
<filter id="filter0_d_133_491" x="-8.6" y="-5.6" width="432.2" height="520.2" filterUnits="userSpaceOnUse" color-interpolation-filters="sRGB">
<feFlood flood-opacity="0" result="BackgroundImageFix"/>
<feColorMatrix in="SourceAlpha" type="matrix" values="0 0 0 0 0 0 0 0 0 0 0 0 0 0 0 0 0 0 127 0" result="hardAlpha"/>
<feOffset dy="4"/>
<feGaussianBlur stdDeviation="4.3"/>
<feComposite in2="hardAlpha" operator="out"/>
<feColorMatrix type="matrix" values="0 0 0 0 0 0 0 0 0 0 0 0 0 0 0 0 0 0 0.25 0"/>
<feBlend mode="normal" in2="BackgroundImageFix" result="effect1_dropShadow_133_491"/>
<feBlend mode="normal" in="SourceGraphic" in2="effect1_dropShadow_133_491" result="shape"/>
</filter>
<filter id="filter1_d_133_491" x="-22.7" y="410.635" width="462.387" height="110.065" filterUnits="userSpaceOnUse" color-interpolation-filters="sRGB">
<feFlood flood-opacity="0" result="BackgroundImageFix"/>
<feColorMatrix in="SourceAlpha" type="matrix" values="0 0 0 0 0 0 0 0 0 0 0 0 0 0 0 0 0 0 127 0" result="hardAlpha"/>
<feOffset dy="-3"/>
<feGaussianBlur stdDeviation="9.85"/>
<feComposite in2="hardAlpha" operator="out"/>
<feColorMatrix type="matrix" values="0 0 0 0 0 0 0 0 0 0 0 0 0 0 0 0 0 0 0.25 0"/>
<feBlend mode="normal" in2="BackgroundImageFix" result="effect1_dropShadow_133_491"/>
<feBlend mode="normal" in="SourceGraphic" in2="effect1_dropShadow_133_491" result="shape"/>
</filter>
<clipPath id="clip0_133_491">
<rect width="423" height="504" fill="white" transform="translate(-3)"/>
</clipPath>
</defs>
</svg>
