<svg width="258" height="281" viewBox="0 0 258 281" fill="none" xmlns="http://www.w3.org/2000/svg">
<path d="M12.763 100.229C4.45842 75.0067 38.6458 61.5174 50.6153 78.5438C55.718 85.5329 66.912 106.98 72.4198 119.704C76.9045 104.32 99.2457 100.057 110.149 114.757C98.0906 86.4219 136.975 73.5051 148.438 99.3341C145.364 80.9316 141.029 52.1334 140.579 33.6827C139.874 4.79323 174.559 1.95281 180.438 23.3373C186.316 44.7219 191.621 74.3677 194.397 108.801C213.404 108.879 225.913 116.331 230.53 140.12C240.666 192.346 222.401 231.559 167.631 249.593C75.735 279.85 34.4107 158.333 12.763 100.229Z" fill="#BC294B"/>
<path d="M154.49 116.046C144.376 120.044 135.245 125.382 130.463 129.852C126.546 133.513 123.975 137.528 122.606 141.528M154.49 116.046C166.651 112.042 181.458 108.748 194.397 108.801M154.49 116.046C152 108.482 150.468 103.908 148.438 99.3341M110.149 114.757L122.606 141.528M110.149 114.757C98.0906 86.4219 136.975 73.5051 148.438 99.3341M110.149 114.757C99.2457 100.057 76.9045 104.32 72.4198 119.704M200.216 150.101L179.278 156.995M164.104 200.665C160.138 185.508 162.34 162.572 179.278 156.995M179.278 156.995C163.951 162.042 137.806 174.944 125.603 160.341M122.606 141.528C120.224 148.487 121.477 155.403 125.603 160.341M125.603 160.341C120.494 172.843 100.786 174.919 92.3156 166.059C83.8448 157.2 77.9573 144.104 74.0777 136.136C71.2384 130.304 70.979 124.647 72.4198 119.704M194.397 108.801C213.404 108.879 225.913 116.331 230.53 140.12C240.666 192.346 222.401 231.559 167.631 249.593C75.735 279.85 34.4107 158.333 12.763 100.229C4.45842 75.0067 38.6458 61.5174 50.6153 78.5438C55.718 85.5329 66.912 106.98 72.4198 119.704M194.397 108.801C191.621 74.3677 186.316 44.7219 180.438 23.3373C174.559 1.95281 139.874 4.79323 140.579 33.6827C141.029 52.1334 145.364 80.9316 148.438 99.3341" stroke="#FCD1DB" stroke-width="12.726"/>
</svg>
