<svg width="331" height="331" viewBox="0 0 331 331" fill="none" xmlns="http://www.w3.org/2000/svg">
<path fill-rule="evenodd" clip-rule="evenodd" d="M299.619 180.454C293.288 188.791 285.08 195.486 277.93 203.132C268.622 213.087 261.097 224.705 255.82 237.272C250.36 250.274 246.94 264.831 236.889 274.723C222.429 288.954 198.546 288.659 179.812 280.871C150.569 268.714 129.871 242.15 114.025 214.731C110.842 209.225 107.614 203.433 102.356 199.854C92.798 193.347 80.0701 196.114 68.558 197.198C60.3753 197.969 51.8533 197.692 44.3394 194.361C33.0862 189.374 25.547 177.929 23.1076 165.864C20.6681 153.799 22.7789 141.205 26.7249 129.546C37.5458 97.573 62.469 70.9187 93.1257 56.7943C123.783 42.6699 159.704 40.945 191.982 50.8165C206.124 55.1414 220.022 61.9211 229.564 73.2187C237.981 83.1838 242.557 96.1092 251.798 105.315C260.646 114.13 272.784 118.589 283.799 124.476C294.814 130.364 305.726 139.009 308.234 151.244C310.336 161.5 305.949 172.116 299.619 180.454Z" fill="white" fill-opacity="0.2"/>
<path fill-rule="evenodd" clip-rule="evenodd" d="M69.9738 74.9794L70.2265 74.993C74.6854 75.2495 79.8344 77.1425 80.8956 81.4809C83.9781 70.4214 91.0072 60.5058 100.422 53.9354C97.5236 60.0711 96.3912 67.0291 97.1947 73.7673C99.7136 67.3633 104.367 61.8201 110.239 58.2304C107.579 61.9977 106.058 66.5578 105.922 71.1674C105.824 74.5193 106.512 78.0286 108.611 80.6441C109.966 82.3334 111.82 83.5467 113.713 84.5992C114.186 84.8625 114.665 85.1166 115.147 85.3616C115.338 85.4588 115.53 85.5544 115.723 85.6486C116.169 85.8672 116.619 86.0779 117.072 86.2808C117.478 86.4627 117.887 86.6384 118.298 86.8079L118.57 86.919C118.841 87.0288 119.113 87.1358 119.386 87.2402L119.836 87.4094L120.088 87.5018L120.578 87.6764L120.763 87.7408L121.19 87.8862C121.476 87.9817 121.762 88.0743 122.049 88.1642L122.624 88.3399L122.999 88.4502L123.451 88.5783L123.865 88.6915L124.457 88.8464L124.717 88.9117L125.116 89.009L125.346 89.0636L125.752 89.1565L126.06 89.2247L126.258 89.2674L126.795 89.3786L127.343 89.4855L127.87 89.5821L128.397 89.6726L128.953 89.7616L129.464 89.8374L130.013 89.9127L130.554 89.9807L131.044 90.0369L131.349 90.0695L131.809 90.1148L132.136 90.1443L132.47 90.1723L133.014 90.2128L133.19 90.2246L133.739 90.2574L134.274 90.2835L134.795 90.3032L135.135 90.3131L135.646 90.3236L135.885 90.3267L136.429 90.3295L136.974 90.3263L137.208 90.3231L137.697 90.3127L138.269 90.2946L138.602 90.281L139.105 90.2561L139.657 90.223L140.193 90.185L140.737 90.1404L141.001 90.1166L141.53 90.0646L142.086 90.0038L142.365 89.9709L142.865 89.9079L143.4 89.8347L143.711 89.7895L143.97 89.7503L144.228 89.7098L144.725 89.6278L145.054 89.5707L145.276 89.5309L145.56 89.4785L146.099 89.3741L146.345 89.3244L146.617 89.2679L147.096 89.1646L147.648 89.0393L148.158 88.9175L148.446 88.8461L148.941 88.7191L149.239 88.6399L149.746 88.5004L150.266 88.3513L150.504 88.281L150.815 88.1871L151.314 88.0317L151.549 87.9563L151.803 87.8734L152.095 87.7759L152.301 87.7061L152.602 87.602L153.095 87.4269L153.351 87.3334L153.861 87.1425L154.346 86.9544L154.847 86.7537L155.299 86.5665L155.62 86.4307L156.098 86.2225L156.335 86.117L156.558 86.0163L156.82 85.8961L157.072 85.7788L157.291 85.675L157.793 85.4325L158.023 85.3187L158.259 85.1999L158.715 84.9662L158.99 84.8223L159.225 84.6974L159.716 84.4304L159.909 84.3231L160.198 84.16L160.386 84.0525L160.631 83.9108L160.865 83.7737L161.099 83.6344L161.556 83.3562L161.997 83.0812L162.259 82.9143L162.462 82.7832L162.704 82.6246L162.898 82.496L163.154 82.3235L163.349 82.1907L163.574 82.0355L163.822 81.8621L164.023 81.7191L164.258 81.5506C164.351 81.483 164.444 81.415 164.537 81.3467C164.571 80.8625 164.533 80.4386 164.439 80.0588C164.054 79.8193 163.673 79.5557 163.297 79.2681C161.985 78.2629 160.756 76.5716 159.611 74.1941L159.309 73.7833C157.622 71.4588 156.346 69.2253 156.267 68.87C155.747 66.5025 155.589 64.0898 155.618 61.6651L155.615 61.6505C155.371 59.993 155.491 58.2986 155.888 56.6019C155.958 55.7573 156.036 54.9139 156.114 54.0732L156.469 54.634L156.502 54.5417C156.893 53.452 157.654 55.5336 158.511 57.8662L160.628 61.2167C159.387 52.7651 162.573 43.7868 168.865 38.0088C165.772 50.2824 169.376 64.0312 178.092 73.2093C188.31 83.9686 204.187 88.0865 213.967 99.2452C222.75 109.265 225.139 123.192 230.711 135.302L230.898 135.705C232.889 139.963 235.597 144.279 239.924 146.115C244.14 147.904 248.959 146.961 253.435 145.991L266 143.268C261.611 152.973 248.654 157.692 239.051 153.083C242.18 157.59 247.959 160.099 253.388 159.306C261.241 158.16 267.37 150.928 275.294 150.494C277.373 150.381 279.637 150.848 281.018 152.407C283.006 154.652 282.288 158.448 280.06 160.456C277.833 162.463 274.585 162.952 271.606 162.614C275.262 161.23 279.158 153.837 276.55 154.113C270.253 154.78 260.276 159.905 253.154 165.488C254.742 165.055 256.63 165.338 258.243 165.01C262.016 164.243 263.411 163.517 266.687 162.614C264.944 166.352 260.699 167.195 256.344 169.332C263.248 168.338 269.848 166.381 276.752 165.388C279.243 165.03 285.634 167.409 285.481 168.473C285.428 168.845 280.997 168.779 280.238 168.759C277.314 168.68 275.186 168.122 272.643 169.568C265.452 173.658 255.396 174.201 247.665 171.255L248.983 172.257L249.976 173.006C254.624 176.492 259.449 179.808 264.944 181.617C271.281 183.705 278.785 183.456 284.024 179.347L284.204 179.204C288.267 175.915 293.39 173.956 298.611 173.693C292.7 176.531 287.271 180.369 282.624 184.994C286.8 182.393 292.335 182.136 296.734 184.338C293.384 184.406 290.054 185.338 287.155 187.02C285.982 187.7 284.739 189.092 285.481 190.227C285.815 190.738 286.448 190.958 287.046 191.079C291.709 192.022 296.041 189.064 299.972 186.206L301.156 185.343C305.394 182.263 311.223 179.57 315.606 182.441C307.111 187.183 301.213 196.524 291.775 198.885C284.24 200.77 276.402 197.648 269.535 194.02L267.864 193.133L267.169 192.768C263.298 190.745 259.258 188.896 254.967 189.211C249.793 189.591 244.706 194.904 246.743 199.674C248.071 202.781 251.712 204.219 255.075 204.539C258.439 204.86 261.884 204.394 265.175 205.161C272.521 206.875 277.237 213.454 282.834 218.527L284.113 219.671L284.491 220.006C287.495 222.65 291.518 225.907 295.748 227.111C300.504 228.465 305.554 227.061 308.258 227.111C313.777 227.212 319.722 228.934 322.882 233.459L322.064 233.227L321.509 233.073C318.192 232.169 315.077 231.579 312 232.233C310.499 232.552 301.438 237.773 291.775 234.007C284.055 230.998 277.895 224.385 274.765 222.049C270.176 218.626 255.448 210.862 257.072 212.601C257.262 213.182 256.536 213.015 255.157 212.299L255.392 212.806C258.11 218.769 258.325 223.454 256.035 226.863C253.652 230.411 250.156 230.941 245.547 228.452L244.495 227.747C241.799 225.931 239.957 224.644 238.971 223.884C238.023 223.153 240.459 238.93 245.547 243.894C247.928 246.218 255.598 247.724 262.083 250.803C263.918 251.674 265.961 253.448 268.212 256.124C265.146 254.58 262.433 253.596 260.074 253.17C249.849 251.324 242.525 253.653 238.174 247.962C233.822 242.271 234.375 240.214 233.914 235.366L233.102 226.863C228.168 234.111 223.549 238.879 219.245 241.169C215.391 243.219 211.503 243.196 207.581 241.101L207.397 241.002L207.48 241.051C210.713 242.957 213.524 244.275 215.911 245.005C218.607 245.828 222.015 246.285 226.137 246.375C214.301 253.543 203.976 252.716 195.16 243.894L194.681 243.411C189.875 238.534 183.24 230.724 179.596 219.28L179.324 218.417C177.748 213.448 176.301 210.392 177.493 200.877L177.631 199.81C177.922 197.462 178.24 193.535 177.572 189.802C177.278 188.157 176.196 185.727 174.326 182.513C166.691 191.61 162.605 200.622 162.066 209.548C161.528 218.474 163.504 228.719 167.994 240.283L168.085 240.524L168.155 240.725C169.155 241.786 170.124 243.037 171.027 244.555C175.662 252.35 182.064 259.839 182.375 268.903C182.57 274.569 180.131 280.272 175.899 284.045C179.481 274.747 176.718 263.369 169.299 256.726L169.073 256.527C160.987 249.481 155.852 239.151 155.116 228.452C155.174 228.666 155.236 228.873 155.303 229.073C154.327 224.467 153.897 219.764 154.015 214.963L154.029 214.466C154.195 209.257 155.02 201.924 156.505 192.469L156.127 193.495C154.68 197.457 153.664 200.752 153.347 202.567C151.075 215.6 151.457 232.434 153.347 241.253L152.281 241.597C135.201 247.088 126.088 249.026 124.942 247.412L120.886 241.253C108.383 219.346 104.804 190.899 110.565 165.642L110.742 164.878L110.629 165.214C108.361 171.996 106.286 181.951 105.637 190.923L105.597 191.51C104.98 200.98 106.047 209.244 105.65 211.012L105.637 211.064C104.463 215.549 110.349 232.79 117.362 244.745C121.846 252.388 128.859 256.636 128.023 258.041C127.377 259.127 117.515 252.656 109.431 245.014L108.975 244.58C101.578 237.478 95.9249 229.423 95.782 230.763C94.9395 238.669 105.637 254.298 105.637 256.038L105.635 256.847C105.601 264.214 105.059 270.251 102.396 276.533L102.182 277.032C100.702 280.43 98.6693 284.049 95.0984 284.845C98.5363 279.628 100.994 273.766 102.306 267.657C102.881 264.98 103.238 262.211 102.821 259.504C102.27 255.934 100.406 252.694 98.23 249.811C92.6807 242.456 84.5956 236.186 83.1428 227.088C82.3919 222.385 83.5864 217.592 83.421 212.833C83.262 208.258 81.8525 203.822 81.2969 199.278C79.9014 187.868 84.2825 175.899 92.7142 168.086C83.6272 168.967 74.8632 172.903 68.1686 179.111C65.0782 181.976 62.3903 185.329 58.8675 187.642C54.358 190.603 48.8808 191.609 43.5685 192.55C53.1527 186.133 61.4647 177.823 67.8848 168.241C62.8964 174.687 55.3115 179.062 47.2343 180.153L47.7984 179.784C52.7753 176.508 57.5596 172.666 60.4763 167.485C63.5032 162.108 64.1178 154.998 60.5929 149.934C57.0679 144.869 48.8554 143.271 44.5393 147.68C49.0468 141.976 55.9627 138.241 63.2044 137.599C70.2819 136.972 79.4539 138.019 85.7144 134.614C74.9122 132.426 63.9747 130.908 52.9851 130.072C50.9026 129.913 48.3961 129.574 46.1004 129.151C43.7619 128.847 41.7505 128.398 40.1779 127.603C40.0042 127.524 39.853 127.446 39.7274 127.369C39.6738 127.337 39.6242 127.305 39.5783 127.274L39.4729 127.202L39.4471 127.182C38.3994 126.394 40.038 126.313 40.781 126.07C40.4571 125.686 39.5787 125.447 39.5276 125.08C39.5237 125.053 39.5337 125.023 39.5542 124.993L39.5287 124.913C39.4922 124.511 40.4898 124.481 40.4533 124.079C40.163 123.503 39.6375 123.468 39.6286 123.184L39.5794 123.129C39.3505 122.861 39.3915 122.659 40.354 122.671L40.4533 122.672C42.6414 122.727 43.6585 122.896 45.6358 123.796L45.6672 123.805L45.2099 123.309C44.6449 122.686 43.9759 121.83 44.6609 121.518C44.6815 121.504 44.7065 121.494 44.7363 121.488C44.8608 121.444 45.0221 121.415 45.2258 121.404C48.5591 121.218 48.9815 122.933 51.734 122.975L52.4004 122.983C63.4673 123.094 83.3173 121.996 82.6264 121.758C81.9214 121.515 68.2714 111.581 59.8216 111.823C55.6365 111.942 51.2114 113.381 47.4193 111.606C54.3512 108.74 62.3629 107.851 69.3532 110.572C73.298 112.107 76.7404 114.7 80.5732 116.497C88.8454 120.375 98.8934 120.234 107.054 116.126C98.0506 116.338 89.0029 114.266 80.9896 110.157C92.4819 111.389 104.238 110.095 115.187 106.392C106.759 101.53 97.0306 99.4276 87.2581 99.0548L85.8699 99.055C83.662 99.0496 81.9751 99.022 80.6986 99.0552L80.2862 99.0688C68.2487 99.5545 56.4166 102.178 44.5872 104.459C44.1903 104.536 43.7561 104.579 43.314 104.585L43.2034 104.586C41.2828 104.586 39.2603 103.883 39.5287 102.152C45.5443 102.041 50.8307 98.4292 56.2624 95.8414C63.2765 92.4998 71.0452 90.7553 78.8142 90.7712L79.238 90.7738L79.6617 90.7799C79.548 90.6531 79.4331 90.5274 79.3171 90.4027L79.0604 90.1308L78.8331 89.8961L78.6031 89.6641C78.3097 89.3718 78.0097 89.0861 77.7035 88.8072L77.439 88.5694L77.1763 88.3392L76.814 88.031L76.5892 87.8451L76.3436 87.6464L76.0041 87.3792L75.8487 87.2596L75.6118 87.0807L75.2392 86.807L74.9891 86.6285L74.6064 86.3633L74.5389 86.3175C74.35 86.1897 74.1596 86.0641 73.9676 85.9409L73.7652 85.8121L73.5169 85.6574L73.2494 85.4948L72.9531 85.3193L72.5886 85.1101L72.2776 84.9372L72.0144 84.7948L71.7572 84.6591L71.3695 84.461L71.0775 84.3167L70.6589 84.1171L70.3553 83.9777L69.9749 83.809L69.5738 83.6385L69.2566 83.5088C69.0603 83.4299 68.8631 83.3533 68.665 83.279L68.3673 83.1692C68.0795 83.0649 67.79 82.9654 67.4988 82.8708C67.3701 82.8289 67.2412 82.7881 67.112 82.7482L66.829 82.6625C66.7308 82.6333 66.6323 82.6046 66.5337 82.5766L66.2432 82.4956C61.8362 81.2934 58.2065 77.5871 57.0965 73.1561C60.9228 75.2918 65.5879 74.758 69.9738 74.9794ZM88.1266 135.114L88.2137 135.141C89.3741 135.492 91.008 135.884 92.9936 136.194C91.3749 135.818 89.7524 135.458 88.1266 135.114ZM45.9612 121.854L45.9664 121.857L46.2276 121.951C46.4565 122.031 46.7137 122.117 47.0014 122.205L46.7776 122.1C46.5142 121.981 46.2425 121.879 45.9612 121.854Z" fill="white"/>
<path fill-rule="evenodd" clip-rule="evenodd" d="M175.313 161.954C174.352 161.759 173.227 161.613 172.504 162.275C164.922 169.201 160.878 179.119 157.653 188.868C155.472 195.46 153.546 202.187 152.88 209.098C152.344 214.658 152.631 220.261 152.919 225.84C153.182 230.947 153.445 236.054 153.708 241.161C153.12 241.557 142.42 225.41 146.116 204.158C149.812 182.906 159.17 164.33 165.511 158.045C174.434 151.516 184.135 163.743 175.313 161.954Z" fill="#E7EAEE"/>
<path d="M68.9988 112.477C72.7594 113.992 75.8838 116.733 79.4344 118.691C83.3017 120.823 87.6175 121.996 91.9236 122.975C106.723 126.342 63.2219 110.149 68.9988 112.477Z" fill="white"/>
<path fill-rule="evenodd" clip-rule="evenodd" d="M157.964 123.268C168.364 115.162 170.336 119.358 172.699 118.23C169.972 120.458 167.031 123.077 166.74 126.585C166.561 128.753 167.455 130.852 168.364 132.828C169.625 135.57 170.978 138.322 173.004 140.559C177.123 145.105 159.287 134.785 157.789 131.424C157.098 129.873 156.391 128.228 156.579 126.54C156.712 125.351 157.127 123.92 157.964 123.268Z" fill="#E7EAEE"/>
<path d="M160.95 104.611C161.412 102.328 163.266 100.602 165.159 99.2446C170.911 95.1211 177.998 92.8914 185.074 92.9787C184.592 92.7511 185.645 92.9021 186.746 93.8211C188.117 94.9654 188.83 95.7961 189.383 97.7943C187.579 97.4598 185.909 96.4488 184.777 95.0057C185.258 97.5564 187.395 99.7124 189.941 100.217C188.507 100.59 187.195 101.415 186.237 102.545C188.588 101.682 191.481 102.692 192.782 104.832C189.205 104.366 185.443 105.616 182.857 108.13C186.844 106.647 191.668 107.765 194.595 110.852C188.783 110.404 182.954 110.166 177.124 110.138C180.192 110.752 182.996 112.592 184.781 115.162C184.36 115.163 181.768 114.903 177.124 113.634C174.223 112.841 166.009 110.138 166.009 110.138C166.009 110.138 165.156 109.624 164.772 109.374C161.953 107.538 160.678 105.95 160.95 104.611Z" fill="white"/>
<ellipse cx="169.257" cy="98.0399" rx="1.40688" ry="1.65418" fill="#FFB61D"/>
<path fill-rule="evenodd" clip-rule="evenodd" d="M165.322 0.297804C165.115 0.355529 164.787 0.316265 164.82 0.103495C164.944 0.0398484 165.082 -0.0256413 165.217 0.0101488C165.352 0.0459389 165.44 0.240928 165.331 0.328621L165.322 0.297804Z" fill="#00160A"/>
<ellipse cx="174.899" cy="107.244" rx="1.54534" ry="1.76533" fill="#FFB61D"/>
<path d="M84.833 135.332C78.5704 139.174 70.5227 136.951 63.2041 137.6C55.9625 138.241 49.0464 141.977 44.5391 147.681C48.8551 143.272 57.0677 144.87 60.5928 149.934C64.1177 154.998 63.5034 162.109 60.4766 167.485C57.4497 172.862 52.4116 176.797 47.2344 180.153C55.3114 179.062 62.8963 174.688 67.8848 168.242C61.4647 177.824 53.1525 186.133 43.5684 192.55C48.8806 191.609 54.3577 190.604 58.8672 187.643C62.3899 185.329 65.0786 181.977 68.1689 179.111C74.8635 172.904 83.627 168.968 92.7139 168.087C84.2825 175.9 79.9016 187.868 81.2969 199.278C81.8525 203.822 83.2619 208.258 83.4209 212.833C83.5863 217.592 82.3917 222.386 83.1426 227.088C84.5954 236.186 92.6812 242.456 98.2305 249.811C100.406 252.694 102.269 255.934 102.82 259.504C103.238 262.211 102.882 264.981 102.307 267.658C100.994 273.767 98.5364 279.628 95.0986 284.846C98.845 284.011 100.898 280.067 102.396 276.533C105.156 270.023 107.768 262.781 105.638 256.039C104.38 252.058 101.603 248.769 99.5215 245.149C94.9423 237.188 93.8023 227.324 96.4453 218.528C95.0822 227.956 97.1218 237.839 102.105 245.957C103.936 248.938 106.173 251.739 107.256 255.065C107.999 257.347 108.162 259.783 108.074 262.181C107.759 270.76 104.165 279.179 98.1885 285.343C97.2515 286.309 95.8008 287.277 94.6777 286.535C93.5362 285.781 93.8911 284.035 94.4404 282.782C97.3104 276.237 102.041 270.066 101.907 262.92C101.774 255.856 96.8962 249.872 92.1162 244.669C87.3362 239.466 82.1527 233.923 81.1562 226.928C80.4883 222.238 81.8223 217.498 81.7842 212.762C81.7449 207.884 80.2541 203.138 79.749 198.286C78.684 188.055 82.2667 177.43 89.3086 169.933C81.9213 171.405 74.9449 174.891 69.3311 179.913C65.9911 182.901 63.1032 186.436 59.3643 188.907C53.9967 192.454 47.4025 193.48 41.0381 194.421C40.608 193.866 41.184 193.107 41.7178 192.651C47.3407 187.852 52.964 183.053 58.5869 178.254C53.7082 180.522 48.299 181.64 42.9209 181.491C47.6212 178.248 52.5696 175.214 56.3613 170.944C60.1529 166.674 62.68 160.821 61.4258 155.25C60.1714 149.679 54.1586 145.134 48.7119 146.85C46.3729 147.586 44.4592 149.289 42.1963 150.234C44.2073 142.406 52.6529 137.921 60.6484 136.735C68.6441 135.55 76.8629 136.679 84.833 135.332ZM174.124 181.327C177.73 184.49 178.774 189.707 178.608 194.501C178.443 199.294 177.294 204.036 177.431 208.83C177.644 216.325 180.975 223.374 184.815 229.813C188.944 236.736 193.96 243.461 200.979 247.421C207.999 251.381 217.418 251.967 223.785 247.025C217.577 246.909 211.414 244.971 206.256 241.515C205.281 240.861 204.236 239.635 204.912 238.676C207.823 241.295 212.029 242.399 215.852 241.547C219.674 240.695 223.013 237.909 224.536 234.301C226.113 230.566 225.633 225.93 222.988 222.857C220.344 219.785 215.53 218.66 211.97 220.6C208.409 222.539 206.787 227.553 208.856 231.039C210.551 233.892 215.335 234.88 217.086 232.062C218.057 230.498 217.709 228.366 216.623 226.88C215.537 225.394 213.847 224.461 212.121 223.822C215.695 221.605 221.035 223.983 222.149 228.038C223.264 232.093 220.318 236.657 216.25 237.723C212.182 238.788 207.627 236.574 205.541 232.923C203.455 229.271 203.723 224.525 205.79 220.862C208.749 215.619 215.333 212.709 221.202 214.051C229.639 215.979 234.521 225.374 234.609 234.028C234.643 237.338 234.173 240.788 235.425 243.853C237.633 249.26 244.202 251.311 250.02 251.832C255.837 252.353 262.111 252.131 266.957 255.391C265.054 252.221 261.368 250.614 257.811 249.61C254.253 248.607 250.493 247.971 247.393 245.957C240.944 241.768 239.352 233.183 238.34 225.561C241.014 231.458 240.883 238.836 245.455 243.421C248.767 246.742 253.689 247.677 258.192 248.988C262.695 250.299 267.53 252.626 269.014 257.075C262.854 253.842 255.831 252.273 248.881 252.578C240.72 252.936 233.122 245.298 233.523 237.139C233.824 231.035 233.078 224.436 229.067 219.825C226.237 216.572 221.888 214.669 217.582 214.9C213.276 215.132 209.119 217.529 206.848 221.194C204.943 224.269 204.414 228.265 205.859 231.58C207.304 234.896 210.849 237.3 214.454 237.017C218.06 236.733 221.308 233.5 221.242 229.884C221.176 226.268 217.431 223.067 213.91 223.893C217.315 225.247 219.708 229.698 217.614 232.705C216.391 234.463 213.944 235.156 211.889 234.552C209.834 233.947 208.22 232.203 207.497 230.187C205.895 225.719 208.928 220.307 213.481 218.968C218.035 217.629 223.279 220.221 225.361 224.486C227.443 228.751 226.447 234.198 223.31 237.759C220.172 241.32 215.174 242.997 210.452 242.516C215.814 245.545 222.377 246.374 228.323 244.774C222.71 252.317 211.277 253.608 202.714 249.727C194.15 245.845 188.065 237.965 183.501 229.745C179.359 222.285 176.112 214.006 176.417 205.479C176.568 201.256 177.589 197.071 177.387 192.851C177.222 189.406 176.228 186.004 174.513 183.013C166.885 190.99 162.754 202.011 162.415 213.042C162.076 224.074 165.385 235.069 171.026 244.555C175.662 252.35 182.064 259.839 182.375 268.902C182.569 274.569 180.131 280.272 175.899 284.046C179.518 274.653 176.662 263.139 169.073 256.526C160.988 249.481 155.852 239.151 155.116 228.452C157.145 236.019 159.291 243.823 164.173 249.95C167.09 253.611 170.879 256.524 173.65 260.297C177.874 266.047 179.416 273.685 177.758 280.624C181.534 276.419 182.02 270.059 180.524 264.608C179.029 259.158 175.847 254.354 172.899 249.532C168.522 242.371 164.521 234.852 162.541 226.695C158.708 210.909 163.193 193.344 174.124 181.327ZM176.229 225.41C178.792 233.239 182.482 240.699 187.15 247.486C190.415 252.234 194.145 256.641 197.867 261.038C199.201 262.613 200.544 264.198 202.132 265.516C205.743 268.512 210.398 269.948 215.011 270.811C222.864 272.279 231.56 272.112 238.111 267.54C239.437 266.615 240.672 265.513 242.177 264.922C238.133 269.862 231.454 271.898 225.079 272.244C218.33 272.61 211.498 271.353 205.321 268.608C204.071 268.053 202.837 267.431 201.761 266.587C200.82 265.849 200.016 264.954 199.221 264.062C190.509 254.289 182.006 243.932 177.44 231.662C176.694 229.656 176.05 227.543 176.229 225.41ZM235.976 256.898C240.996 256.014 246.15 255.886 251.208 256.521C255.97 257.12 260.621 258.385 265.252 259.646C269.699 260.858 274.145 262.069 278.592 263.28C280.279 263.74 281.969 264.2 283.605 264.814C287.078 266.119 290.287 268.121 292.986 270.665C292.667 270.942 292.19 270.9 291.771 270.84C277.798 268.83 264.01 265.533 250.638 261.007C242.964 258.41 233.925 260.403 228.056 265.987C232.512 266.597 237.126 266.026 241.299 264.347C239.385 265.816 237.04 266.718 234.635 266.911C231.011 267.202 227.126 265.963 223.855 267.55C225.024 266.767 226.193 265.985 227.361 265.202C231.632 262.343 236.144 259.396 241.263 258.936C245.508 258.554 249.689 259.933 253.761 261.195C265.807 264.929 278.127 267.781 290.589 269.72C287.933 267.741 284.984 266.155 281.87 265.028C280.21 264.428 278.506 263.958 276.804 263.488C274.556 262.868 272.308 262.248 270.061 261.628C259.284 258.655 248.099 255.657 237.062 257.435C230.586 258.478 223.997 261.145 217.679 259.378C217.293 259.27 216.876 258.726 217.253 258.59C223.359 260.253 229.743 257.997 235.976 256.898ZM120.17 135.899C109.422 160.647 106.257 188.629 111.206 215.152C112.002 219.416 113.005 223.657 114.565 227.703C115.999 231.42 117.899 234.958 120.206 238.206C111.802 229.156 109.338 216.157 108.407 203.842C107.664 194.004 107.667 184.11 108.417 174.272C105.561 189.158 104.982 204.63 108.254 219.43C111.526 234.23 118.817 248.343 130.062 258.507C130.536 258.937 130.089 259.81 129.462 259.943C128.835 260.077 128.213 259.745 127.658 259.423C115.901 252.599 104.053 244.619 97.6084 232.649C97.3377 232.147 97.1861 231.338 97.7295 231.163C105.211 241.887 115.143 250.889 126.548 257.285C111.945 243.134 104.951 222.405 104.39 202.078C103.829 181.751 109.165 161.683 116.284 142.636C117.201 140.182 118.214 137.642 120.17 135.899ZM174.338 158.046C174.438 158.941 173.996 159.875 173.242 160.367C184.749 162.795 196.537 165.335 206.454 171.656C223.431 182.478 232.263 202.576 247.901 215.255C247.451 213.961 247 212.667 246.55 211.373C247.929 212.589 249.308 213.804 250.687 215.021C249.872 213.506 249.057 211.993 248.242 210.479C249.418 211.751 250.986 212.657 252.675 213.041C250.305 210.235 247.576 207.731 244.576 205.612C245.949 206.256 247.543 206.414 249.016 206.053C245.138 204.163 241.589 201.602 238.572 198.519C241.904 200.668 245.236 202.819 248.568 204.969C249.419 205.517 250.369 206.611 249.702 207.372C249.13 207.408 248.557 207.444 247.985 207.48C250.405 209.023 252.425 211.186 253.799 213.704C253.099 214.243 252.028 214.229 251.343 213.672L251.254 215.747C250.239 215.793 249.217 215.258 248.678 214.397C248.783 215.208 248.263 216.058 247.492 216.332C238.053 207.347 229.428 197.507 221.758 186.972C216.46 179.694 209.045 174.125 200.966 170.154C192.887 166.184 184.136 163.743 175.313 161.954C174.353 161.759 173.228 161.614 172.504 162.275C164.923 169.201 160.879 179.12 157.653 188.869C155.473 195.461 153.547 202.188 152.881 209.099C152.345 214.659 152.632 220.262 152.919 225.841C153.182 230.948 153.445 236.055 153.708 241.162C153.12 241.558 152.591 240.576 152.551 239.868C152.267 234.912 151.983 229.956 151.699 225C151.311 218.219 150.926 211.374 152 204.667C152.766 199.884 154.262 195.252 155.753 190.643C156.898 187.101 158.046 183.554 159.479 180.119C162.915 171.88 167.997 164.33 174.338 158.046ZM168.865 38.0088C165.772 50.2824 169.376 64.0318 178.092 73.21C188.31 83.9691 204.188 88.0865 213.968 99.2451C222.847 109.376 225.191 123.502 230.898 135.705C232.89 139.963 235.597 144.279 239.924 146.115C244.14 147.905 248.959 146.961 253.436 145.991C257.624 145.083 261.812 144.175 266 143.268C261.61 152.973 248.654 157.693 239.051 153.084C242.18 157.591 247.96 160.099 253.389 159.307C261.242 158.16 267.37 150.928 275.294 150.494C277.373 150.38 279.637 150.849 281.018 152.407C283.005 154.652 282.288 158.449 280.061 160.456C277.833 162.464 274.585 162.952 271.605 162.613C275.262 161.23 279.158 153.838 276.551 154.113C270.253 154.78 260.276 159.906 253.154 165.488C254.742 165.055 256.63 165.337 258.242 165.01C262.016 164.243 263.411 163.517 266.687 162.613C264.944 166.351 260.699 167.196 256.344 169.332C263.247 168.339 269.848 166.382 276.752 165.389C279.242 165.03 285.633 167.409 285.481 168.473C285.428 168.845 280.998 168.779 280.238 168.759C277.314 168.68 275.186 168.122 272.643 169.568C265.451 173.658 255.396 174.201 247.665 171.256C253.033 175.346 258.534 179.506 264.944 181.617C271.355 183.729 278.958 183.45 284.204 179.204C288.268 175.916 293.389 173.956 298.61 173.692C292.7 176.531 287.271 180.369 282.624 184.994C286.8 182.393 292.335 182.136 296.734 184.338C293.384 184.407 290.054 185.338 287.155 187.02C285.982 187.7 284.739 189.092 285.481 190.228C285.815 190.738 286.448 190.958 287.046 191.079C292.181 192.118 296.917 188.424 301.155 185.344C305.394 182.264 311.224 179.57 315.606 182.441C307.111 187.183 301.213 196.523 291.774 198.885C284.24 200.77 276.402 197.648 269.534 194.02C264.948 191.596 260.14 188.831 254.967 189.211C249.793 189.591 244.706 194.903 246.743 199.674C248.07 202.781 251.712 204.219 255.075 204.539C258.439 204.859 261.884 204.394 265.175 205.161C272.616 206.897 277.358 213.624 283.05 218.722C286.132 221.482 290.798 225.702 295.748 227.111C300.504 228.465 305.554 227.062 308.258 227.111C313.777 227.213 319.722 228.934 322.882 233.46C319.045 232.355 315.497 231.49 312 232.233C310.498 232.553 301.437 237.773 291.774 234.007C284.055 230.998 277.895 224.386 274.765 222.05C270.176 218.627 255.448 210.862 257.072 212.602C258.258 216.231 258.768 219.27 258.242 223.052C257.717 226.834 254.909 230.591 251.101 230.863C248.359 231.059 245.831 229.483 243.606 227.869C239.796 225.106 236.203 222.044 232.869 218.722C229.577 215.44 226.375 211.791 222.039 210.115C212.929 206.593 202.443 213.741 199.024 222.891C196.817 218.643 200.139 213.577 203.888 210.6C209.932 205.798 218.467 203.116 225.458 206.389C232.021 209.461 236.72 217.344 243.955 216.937C238.375 218.732 233.699 212.822 228.914 209.438C223.835 205.845 216.975 204.918 211.125 207.034C205.275 209.151 200.595 214.252 198.99 220.263C203.82 211.619 214.737 205.095 223.633 209.443C227.032 211.105 229.579 214.062 232.216 216.775C236.149 220.824 240.484 224.482 245.136 227.68C247.51 229.312 250.515 230.875 253.139 229.684C255.165 228.763 256.197 226.482 256.676 224.309C257.603 220.103 257.078 215.591 255.21 211.711C263.902 210.162 267.956 215.014 275.124 220.168C282.292 225.322 288.624 233.083 297.404 234.007C307.739 235.094 311.14 227.274 320.271 232.233C315.651 227.469 308.053 227.83 301.438 228.369C293.017 229.055 297.324 229.372 289.873 225.391C280.594 220.433 274.91 209.45 264.728 206.804C261.202 205.887 257.478 206.099 253.895 205.445C250.311 204.791 246.569 202.928 245.312 199.509C243.57 194.771 247.808 189.48 252.74 188.407C257.672 187.335 262.744 189.309 267.183 191.712C271.621 194.115 275.918 197.029 280.856 198.07C287.015 199.368 293.505 197.544 298.927 194.347C304.348 191.149 308.876 186.664 313.306 182.193C304.198 181.044 297.523 192.889 288.362 192.293C287.55 192.24 286.709 192.07 286.073 191.562C284.054 189.945 285.733 186.452 288.132 185.485C290.531 184.518 293.28 184.9 295.748 184.125C289.986 182.913 283.714 184.395 279.104 188.059C282.837 183.056 287.535 178.776 292.861 175.523C287.342 176.78 283.492 182.041 278.059 183.629C274.038 184.804 269.713 183.801 265.759 182.419C258.306 179.815 251.327 175.861 245.263 170.808C248.504 169.277 252.169 171.449 255.685 172.149C265.349 174.073 275.276 164.612 284.426 168.271C274.878 162.091 260.884 174.866 251.477 168.473C256.54 168.279 261.53 166.471 265.542 163.375C261.197 165.642 256.064 166.362 251.263 165.38C258.662 160.404 268.137 153.447 276.752 153.447C278.788 153.447 279.215 154.838 278.546 157.154C277.877 159.471 275.644 160.922 273.577 162.164C275.925 161.571 278.399 160.908 280.091 159.177C281.783 157.445 282.243 154.272 280.385 152.72C279.733 152.176 278.898 151.902 278.065 151.736C268.68 149.866 260.79 159.976 251.231 160.452C245.312 160.747 239.43 156.789 237.472 151.195C246.436 157.012 260.103 153.289 264.881 143.73C255.906 147.125 245.321 150.39 237.222 145.244C231.223 141.433 228.606 134.153 226.361 127.41C222.543 115.937 218.338 103.984 209.474 95.7598C200.722 87.6408 188.47 84.1797 179.563 76.2314C169.418 67.1771 164.739 52.4198 167.814 39.1738C162.681 46.242 160.526 55.4028 161.967 64.0186C159.48 62.2331 157.629 59.5812 156.81 56.6318C155.159 65.2147 158.246 74.557 164.686 80.4668C160.177 78.4154 157.332 73.708 156.268 68.8701C155.204 64.0322 155.656 59.0055 156.114 54.0732C157.619 56.4543 159.123 58.8357 160.628 61.2168C159.387 52.7652 162.574 43.7867 168.865 38.0088ZM172.698 118.23C169.972 120.458 167.031 123.077 166.74 126.586C166.561 128.754 167.455 130.852 168.364 132.828C169.625 135.57 170.979 138.322 173.005 140.559C177.123 145.104 183.364 146.895 189.051 149.195C211.264 158.181 228.094 177.268 239.66 198.254C237.349 196.88 235.888 194.472 234.471 192.187C223.776 174.941 209.639 158.914 190.937 151.039C184.307 148.248 176.892 146.315 172.101 140.95C169.649 138.206 168.113 134.785 166.615 131.424C165.924 129.873 165.218 128.228 165.406 126.54C165.539 125.351 166.111 124.253 166.79 123.269C168.277 121.114 170.336 119.358 172.698 118.23ZM256.035 168.981C255.618 168.873 255.171 168.878 254.757 168.996C255.168 169.08 255.593 169.102 256.011 169.062L256.035 168.981ZM100.423 53.9355C97.5241 60.0712 96.3918 67.0294 97.1953 73.7676C99.7143 67.3637 104.367 61.8201 110.238 58.2305C107.579 61.9978 106.058 66.5584 105.923 71.168C105.825 74.5197 106.512 78.0291 108.61 80.6445C109.966 82.3337 111.82 83.5472 113.713 84.5996C129.492 93.3729 150.369 91.9582 164.82 81.1367C159.861 86.8298 152.514 90.0934 145.036 91.1377C137.559 92.1819 129.927 91.165 122.591 89.3818C116.258 87.8426 109.456 85.2374 106.473 79.4434C103.344 73.368 105.531 65.9348 108.602 59.8301C103.585 64.0323 99.5589 69.4097 96.9385 75.4062C95.7449 69.3501 96.1926 62.9777 98.2227 57.1484C89.7557 63.8367 83.7365 73.5571 81.5215 84.1172C79.7095 79.4558 75.0676 76.0307 70.0791 75.6748C66.233 75.4005 62.1126 76.7578 58.6475 75.0664C60.1604 79.605 65.8839 80.6874 70.2705 82.5967C75.043 84.674 78.8723 88.3989 82.5869 92.0449C75.3771 90.5766 67.8672 92.2439 61 94.8857C54.1326 97.5276 47.6669 101.133 40.7979 103.771C45.4308 103.924 49.9827 102.692 54.4785 101.562C71.2495 97.3497 89.341 94.5009 105.527 100.585C109.078 101.92 112.473 103.665 116.083 104.829C128.378 108.794 141.735 105.666 154.147 102.084C143.902 107.688 131.724 109.676 120.229 107.623C116.345 106.929 112.432 108.286 108.621 109.306C101.664 111.167 94.4188 111.945 87.2256 111.603C107.737 120.802 133.187 107.763 153.658 117.052C139.618 113.765 124.838 113.681 110.761 116.808C102.106 118.73 93.102 121.848 84.6162 119.282C78.7236 117.5 73.9067 113.162 68.1143 111.077C62.4582 109.042 56.0036 109.33 50.5518 111.862C56.7182 110.987 63.2221 110.15 68.999 112.478C72.7596 113.993 75.8841 116.733 79.4346 118.69C83.3018 120.823 87.6177 121.996 91.9238 122.976C106.723 126.342 121.99 127.644 137.146 126.832C142.399 126.551 147.787 125.975 152.462 123.561C158.284 120.554 162.537 114.681 163.578 108.212C161.253 108.348 159.605 105.57 160.067 103.287C160.53 101.004 162.383 99.278 164.276 97.9209C170.028 93.7973 177.115 91.568 184.191 91.6553C183.108 91.1444 182.717 90.3914 181.326 89.9004C183.155 89.0518 185.076 89.5722 186.628 90.8584C185.876 89.4336 186.002 87.5883 186.941 86.2793C188.698 89.8172 191.702 92.7204 195.297 94.3574C191.514 93.6139 188.213 90.775 186.911 87.1455C186.575 89.5111 187.356 92.0119 188.978 93.7666C187.234 91.6921 184.711 90.2883 182.028 89.9004C185.552 91.1486 188.387 94.1916 189.383 97.7949C187.579 97.4604 185.909 96.4489 184.776 95.0059C185.258 97.5565 187.395 99.713 189.941 100.218C188.508 100.59 187.195 101.416 186.237 102.546C188.588 101.682 191.481 102.693 192.782 104.832C189.205 104.366 185.443 105.616 182.856 108.131C186.844 106.647 191.667 107.766 194.595 110.853C188.782 110.404 182.954 110.166 177.124 110.138C180.192 110.752 182.996 112.593 184.781 115.162C182.905 115.168 181.032 114.571 179.504 113.482C180.896 113.286 182.354 113.582 183.559 114.308C181.058 112.12 177.983 110.593 174.728 109.925C180.859 109.246 187.075 109.341 193.183 110.207C189.936 107.947 185.538 107.445 181.866 108.916C183.866 105.732 187.77 103.854 191.506 104.278C189.868 102.689 187.127 102.388 185.184 103.585C185.522 101.946 186.854 100.554 188.477 100.145C187.225 99.4913 185.927 98.7972 185.109 97.6465C184.292 96.4958 184.134 94.7446 185.145 93.7598C185.748 95.0115 186.732 96.0748 187.928 96.7822C186.994 95.9785 187.227 93.9786 186.285 92.9434C185.599 92.1895 184.45 92.1277 183.432 92.167C175.988 92.454 168.669 95.3468 163.041 100.228C161.651 101.433 160.249 103.234 160.945 104.938C161.287 105.774 162.065 106.34 162.805 106.859C164.507 108.055 166.21 109.25 167.912 110.445C166.739 110.339 165.589 109.975 164.567 109.389C163.154 115.825 158.689 121.522 152.776 124.431C148.448 126.56 143.555 127.21 138.747 127.601C124.705 128.741 110.504 127.91 96.6904 125.143C91.9378 124.19 87.2076 123.007 82.3721 122.673C70.9051 121.88 54.0566 125.533 47.1738 122.287C46.6718 122.05 46.1406 121.759 45.5693 121.876C43.7047 121.876 47.192 123.816 48.0723 124.724C45.4297 124.168 43.5303 123.737 40.8877 123.182C38.2452 122.626 43.4004 124.889 45.2256 125.234C43.5538 125.112 38.6686 124.409 40.4531 125.143C42.2391 125.877 43.7834 126.333 45.5693 127.067C43.8099 127.024 38.7012 126.41 40.666 127.262C42.6315 128.113 49.9156 129.084 54.8496 129.428C67.4114 130.304 79.9678 131.797 92.1904 134.826C100.295 136.834 108.407 139.535 116.751 139.244C116.754 140.107 115.604 140.398 114.741 140.387C108.857 140.306 103.119 138.682 97.4092 137.256C82.8385 133.618 67.9601 131.212 52.9854 130.072C48.3081 129.716 41.4921 128.449 39.7275 127.37C37.9633 126.291 40.4693 126.326 41.0156 125.967C40.4539 125.775 39.7052 125.524 39.5293 124.913C39.493 124.511 40.4896 124.481 40.4531 124.079C40.4057 123.567 38.2514 122.618 40.4531 122.673C42.656 122.728 43.6728 122.899 45.6768 123.815C45.153 123.22 43.3018 121.512 45.2256 121.404C48.5589 121.219 48.9818 122.934 51.7344 122.976C62.6466 123.14 83.3227 122.002 82.627 121.759C81.922 121.516 68.2721 111.582 59.8223 111.823C55.6372 111.943 51.2119 113.381 47.4199 111.606C54.3517 108.74 62.3633 107.852 69.3535 110.572C73.2982 112.108 76.7406 114.7 80.5732 116.497C88.8454 120.375 98.8935 120.235 107.054 116.126C98.0508 116.338 89.0026 114.266 80.9893 110.157C92.4816 111.389 104.238 110.095 115.188 106.392C104.752 100.372 92.3235 98.5836 80.2861 99.0693C68.2489 99.5551 56.4171 102.179 44.5879 104.46C42.438 104.874 39.1942 104.316 39.5293 102.152C45.5447 102.042 50.8311 98.4295 56.2627 95.8418C63.5318 92.3786 71.6116 90.6309 79.6621 90.7803C76.1045 86.8122 71.3847 83.8986 66.2432 82.4961C61.8363 81.2939 58.2066 77.5873 57.0967 73.1562C60.9965 75.333 65.7677 74.7367 70.2266 74.9932C74.6854 75.2496 79.8344 77.1431 80.8955 81.4814C83.9781 70.4219 91.0077 60.506 100.423 53.9355ZM172.857 113.044C173.715 112.81 174.808 112.651 175.335 113.366C173.155 113.773 171.004 114.335 168.903 115.043C170.709 115.093 172.498 115.666 173.997 116.675C175.921 117.97 178.198 118.736 180.514 118.867C178.043 119.485 175.286 118.804 173.388 117.106C172.472 116.288 171.237 115.897 170.013 115.797C168.789 115.697 167.559 115.865 166.344 116.04C168.092 114.372 170.526 113.679 172.857 113.044ZM177.679 111.607C178.124 111.445 178.668 111.613 178.943 111.999C179.219 112.385 179.202 112.954 178.904 113.322C178.782 113.473 178.613 113.594 178.421 113.625C178.274 113.649 178.124 113.62 177.978 113.591C177.391 113.475 176.793 113.356 176.27 113.067C175.746 112.779 175.298 112.288 175.215 111.696C176.067 112.395 177.14 112.821 178.239 112.896C178.313 112.715 178.388 112.534 178.462 112.353C178.201 112.104 177.94 111.856 177.679 111.607ZM166.898 100.549C167.041 100.53 167.178 100.607 167.238 100.737C167.68 101.699 169.529 105.534 171.435 106.749C171.366 106.881 171.22 106.968 171.071 106.966C169.144 105.834 167.243 102.2 166.652 100.996C166.557 100.801 166.683 100.577 166.898 100.549ZM182.88 101.058C183.584 102.803 183.232 104.929 182.002 106.354C181.871 106.284 181.74 106.214 181.608 106.145C182.144 104.694 182.687 103.196 182.624 101.651C182.614 101.415 182.647 101.101 182.88 101.058ZM178.161 100.25C178.339 100.436 178.595 100.546 178.853 100.548C179.201 101.755 179.073 103.093 178.503 104.212C178.359 104.112 178.159 104.1 178.005 104.184C178.375 102.911 178.43 101.548 178.161 100.25ZM172.637 96.5498C174.441 96.424 176.284 96.9694 177.729 98.0576C176.093 97.4197 174.338 97.09 172.582 97.0898C172.438 97.0898 172.284 97.0948 172.164 97.1758C171.875 97.3716 171.995 97.8316 172.215 98.1025C172.435 98.3735 172.741 98.6267 172.755 98.9756C172.128 98.9929 171.538 98.447 171.508 97.8203C171.477 97.1936 172.011 96.5935 172.637 96.5498ZM187.928 96.7822C188.07 96.9051 188.24 97.0014 188.445 97.0605C188.269 96.9755 188.096 96.882 187.928 96.7822ZM181.778 93.3359C182.521 94.1029 182.861 95.2403 182.661 96.2891C182.282 95.412 181.864 94.5516 181.409 93.7109C181.532 93.5861 181.655 93.4608 181.778 93.3359ZM178.373 93.4121C178.49 93.1929 178.835 93.2031 179.016 93.373C179.197 93.5432 179.254 93.8046 179.293 94.0498C179.404 94.7422 179.393 95.576 178.826 95.9893C178.703 95.8666 178.579 95.7438 178.455 95.6211C178.925 94.9798 178.889 94.0167 178.373 93.4121Z" fill="#00160A"/>
</svg>
