<svg width="402" height="325" viewBox="0 0 402 325" fill="none" xmlns="http://www.w3.org/2000/svg">
<path fill-rule="evenodd" clip-rule="evenodd" d="M126.434 261.044C182.516 294.351 229.566 236.805 280.2 255.71C307.916 266.058 360.916 295.067 387.757 194.39C404.85 129.33 349.321 97.0126 278.634 113.786C258.557 116.024 244.8 109.977 231.114 98.7415C217.428 87.506 205.84 50.6137 169.818 34.0107C61.4154 -15.9532 -83.5899 136.307 126.434 261.044Z" fill="#BC294B"/>
<path d="M104.72 181L95.64 153H103.8L111.44 177.24H107.32L115.36 153H122.64L130.24 177.24H126.28L134.16 153H141.72L132.64 181H124.16L117.68 160.4H119.96L113.2 181H104.72ZM151.838 163.84H164.838V169.76H151.838V163.84ZM152.398 174.88H167.038V181H144.558V153H166.518V159.12H152.398V174.88ZM171.433 181V153H179.353V174.72H192.713V181H171.433ZM209.377 181.56C207.164 181.56 205.111 181.213 203.217 180.52C201.351 179.8 199.724 178.787 198.337 177.48C196.977 176.173 195.911 174.64 195.137 172.88C194.364 171.093 193.977 169.133 193.977 167C193.977 164.867 194.364 162.92 195.137 161.16C195.911 159.373 196.977 157.827 198.337 156.52C199.724 155.213 201.351 154.213 203.217 153.52C205.111 152.8 207.164 152.44 209.377 152.44C211.964 152.44 214.271 152.893 216.297 153.8C218.351 154.707 220.057 156.013 221.417 157.72L216.377 162.28C215.471 161.213 214.471 160.4 213.377 159.84C212.311 159.28 211.111 159 209.777 159C208.631 159 207.577 159.187 206.617 159.56C205.657 159.933 204.831 160.48 204.137 161.2C203.471 161.893 202.937 162.733 202.537 163.72C202.164 164.707 201.977 165.8 201.977 167C201.977 168.2 202.164 169.293 202.537 170.28C202.937 171.267 203.471 172.12 204.137 172.84C204.831 173.533 205.657 174.067 206.617 174.44C207.577 174.813 208.631 175 209.777 175C211.111 175 212.311 174.72 213.377 174.16C214.471 173.6 215.471 172.787 216.377 171.72L221.417 176.28C220.057 177.96 218.351 179.267 216.297 180.2C214.271 181.107 211.964 181.56 209.377 181.56ZM238.483 181.56C236.243 181.56 234.176 181.2 232.283 180.48C230.389 179.76 228.736 178.747 227.323 177.44C225.936 176.107 224.856 174.56 224.083 172.8C223.309 171.04 222.923 169.107 222.923 167C222.923 164.893 223.309 162.96 224.083 161.2C224.856 159.44 225.936 157.907 227.323 156.6C228.736 155.267 230.389 154.24 232.283 153.52C234.176 152.8 236.243 152.44 238.483 152.44C240.749 152.44 242.816 152.8 244.683 153.52C246.576 154.24 248.216 155.267 249.603 156.6C250.989 157.907 252.069 159.44 252.843 161.2C253.643 162.96 254.043 164.893 254.043 167C254.043 169.107 253.643 171.053 252.843 172.84C252.069 174.6 250.989 176.133 249.603 177.44C248.216 178.747 246.576 179.76 244.683 180.48C242.816 181.2 240.749 181.56 238.483 181.56ZM238.483 175C239.549 175 240.536 174.813 241.443 174.44C242.376 174.067 243.176 173.533 243.843 172.84C244.536 172.12 245.069 171.267 245.443 170.28C245.843 169.293 246.043 168.2 246.043 167C246.043 165.773 245.843 164.68 245.443 163.72C245.069 162.733 244.536 161.893 243.843 161.2C243.176 160.48 242.376 159.933 241.443 159.56C240.536 159.187 239.549 159 238.483 159C237.416 159 236.416 159.187 235.483 159.56C234.576 159.933 233.776 160.48 233.083 161.2C232.416 161.893 231.883 162.733 231.483 163.72C231.109 164.68 230.923 165.773 230.923 167C230.923 168.2 231.109 169.293 231.483 170.28C231.883 171.267 232.416 172.12 233.083 172.84C233.776 173.533 234.576 174.067 235.483 174.44C236.416 174.813 237.416 175 238.483 175ZM258.191 181V153H264.711L276.311 172.04H272.871L284.151 153H290.671L290.751 181H283.471L283.391 164.08H284.631L276.191 178.24H272.671L263.991 164.08H265.511V181H258.191ZM303.635 163.84H316.635V169.76H303.635V163.84ZM304.195 174.88H318.835V181H296.355V153H318.315V159.12H304.195V174.88Z" fill="#E6E6E6"/>
</svg>
